<?xml version="1.0" encoding="UTF-8"?>
<svg version="1.1" viewBox="0 0 2048 1173" width="206" height="118" xmlns="http://www.w3.org/2000/svg">
<path transform="translate(0)" d="m0 0h2048v1173h-2048z" fill="#1B1A1A"/>
<path transform="translate(945,905)" d="m0 0h48l1 1v117l-2 1-47-1-1-1v-115z" fill="#DADFE0"/>
<path transform="translate(210,820)" d="m0 0h35l3 9-1 2-19-2-9 2v17l8-2 13-1 6 2 1 3-3 3-9 1-17 1-1 16v2l27 3h8l7-3 5-6 2-4v-6l-8-11-5-7 1-4h7l5 3 5 8 4 3v2l3-3 4-6 6-5 7-1 7 1 9-2h15l5 5 1 18v12l-1 5 13 1 2 1v6l-1 1h-54l-6-2-5-5-4-8-2-13-1 14-4 11-4 2-33 1h-19l-5-3-1-2v-36l1-20z" fill="#F4F4F3"/>
<path transform="translate(224,581)" d="m0 0h16l4 3 1 6-22 1-6 3h-2v8l5 4 16 7 10 6 4 9v2l6-1-2-7v-15l5-5 1-3 5-2h21l9 2 16-3 3-13 2-2 5 1 2 2v11l17 2 7 2v5l-1 1-23 1 1 29 11 2 11 1 1 5-3 2h-24l-5-3-1-2-2-29-1-5-4-2-10-1 1 3 1 13-2 5-4 1-25 2-10 2 6 5 9 2 25 2 1 4-2 2-5 1-26 1-7-2-3-3-1-10-7 2-1 5-5 6-2 1h-34l-5-1-1-6 1-1 31-1 7-2-2-6-5-6-21-9-7-8-2-5 1-5 3-6 3-3z" fill="#F5F5F4"/>
<path transform="translate(933,338)" d="m0 0 7 1 1 1 1 44-1 21-3 2-28-1-7-3-5-10-4-13-4-5-6-5-9-2h-7l-3 7-1 24v5l-2 2h-7l-1-1 1-36 2-9 1-1h27l6 2 4 9 3 5 3-4 6-9 6-3 20-1-3-10v-8z" fill="#F6F6F5"/>
<path transform="translate(203,104)" d="m0 0h14l14 2 10 5 4 5 3 10 2 9v10l-4 10-4 6-5 5-13 2h-16l-6-2-2-3v-19l1-36z" fill="#F5F5F4"/>
<path transform="translate(202,700)" d="m0 0h13l17 2 8 4 4 5 3 9 2 13v10l-1 5h3v2l-4 1-6 9-4 3h-33l-3-3-1-5 1-38z" fill="#F7F7F6"/>
<path transform="translate(416,700)" d="m0 0 5 2 2 6 1 6 19 2 3 3v5l-23 1-1 11v10l1 8 8 2h12l2 1v5l-3 2-13 1-13-2-3-5-1-7-1-25-6-3-8-1 1 5v14l-2 3-25 1-7-1-1 2h-2l4 7 7 3 15 1h8l3 2-1 4-2 1h-33l-7-6-4-9v-17l3-6 5-8 9-2h17l9 3 5-2h11l2-12z" fill="#F6F5F4"/>
<path transform="translate(312,696)" d="m0 0h14l6 2 1 1-1 39-1 13-1 2 11 2 5 3 2 5-10 2h-17l-23-1-22 1h-12l-6-2-2-3-1-7v-20l2-8 4-7 7-2h15l8 2 5 5 2 9v10l-1 1-28 3-8 1 5 8 8 2 22 1 6 3 16-8 1-3 1-14v-17l-2-11-3-3-10-5 1-3z" fill="#F2F2F1"/>
<path transform="translate(822,342)" d="m0 0 10 2 8 6 3 5 1 5v34l-3 7-6 5-7 1h-14l-8-3-6-7-3-8v-22l2-9 6-10 7-4z" fill="#F6F6F5"/>
<path transform="translate(317,462)" d="m0 0 5 1 2 2v12l19 1 4 2-1 5-2 1-21 2v16l-1 12 23 2 2 4-2 3h-26l-4-2-2-8v-29l-16-2 2 15-2 5-1 1-36 3 3 6 7 3 24 1 3 1v5l-7 2h-28l-5-3-3-11v-3-18l2-5 5-7 7-2h14l9 2 3 2 4-2 11-2 2-1 3-12z" fill="#F4F4F3"/>
<path transform="translate(1660,342)" d="m0 0 4 1 3 7-1 7 32 2 5 2 4 5 6 28h2l8-17 5-13 4-6 7-1 2 4-7 20-13 32-6 9-11 4h-13l-2-1 1-3 15-8 4-5 1-8-6-9-7-19-4-5-2-1-17-1-7 1-2 12v9l1 7 7 3 17 2 1 3-1 2-10 2h-15l-6-3-4-6-2-12v-17l-5-1-6-4 1-5 11-3 2-10z" fill="#F7F7F6"/>
<path transform="translate(1362,461)" d="m0 0 3 1 3 7 1 7 2 1 23 1 11 1 4 3 2 15 1 13 1 2 5-2 6-13 4-9 5-9 3-2h6l-1 8-5 11-11 30-7 14-5 4-3 1h-16l-2-1 1-5 16-6 3-4 1-5v-6l-5 1-4-7-5-21-5-4-18-1-7 1-2 9v13l1 7 24 3 1 5-1 1-7 1h-19l-5-2-4-5-2-10v-10l1-13h-10l-4-3 2-5 9-2h3l1-9 2-5z" fill="#F9F9F8"/>
<path transform="translate(1022,358)" d="m0 0 15 1 4 3 6 19v3h2l1-9 8-14 8-3h13l6 2 7 11 4 6-2 7-1 5h-2l-2-5-19 3-10 1-2 1v5l6 3 21 1 7-1 3 6-9 3h-29l-6-5-4-10-2-6-1-4-4-2-9-11-3-1h-10l-3 4-1 5-1 29-1 1h-8l-1-3v-30l2-12 1-2z" fill="#F5F5F4"/>
<path transform="translate(965,928)" d="m0 0 7 1 5 4 6 11 3 21v19l-2 10-8 11-4 3h-7l-5-3-5-11-3-12-1-14 1-20 2-9 4-8z" fill="#CFCDCB"/>
<path transform="translate(916,477)" d="m0 0h16l9 2 3 4v19l-4 3-11 2h-10l-3-1 1-4 4-3h11l-1-10-4-4h-9l-5 2-1 2v21l-1 3 4-1 14 3 14 4 2 3-1 20-2 2-6 1h-28l-9-3-1-7 2-12 1-15v-16l3-10 5-4z" fill="#F7F7F5"/>
<path transform="translate(869,596)" d="m0 0 11 1 4 4 5 9v2h3l2-9 3-5 5-1 3 3-2 11-7 22-11 12-5 1h-16l-8-3-4-5-5-11v-13l4-8 6-7 5-2z" fill="#F5F5F4"/>
<path transform="translate(317,358)" d="m0 0h15l4 2 7 11v2h2l1-6 4-8 4-1 2 1 1 3v10l-4 11-2 12h-3l-7 9-6 3h-20l-7-3-5-8-2-6v-14l4-8 6-7z" fill="#F6F6F5"/>
<path transform="translate(1131,338)" d="m0 0h6l4 3v38l1 24-1 2-4 1-23 1-10-2-5-8-2-5-1-10 3-10 6-9 6-4 20-2v-6l-3-8 1-4z" fill="#F5F5F4"/>
<path transform="translate(334,220)" d="m0 0h9l2 2 1 37v25l-1 2-4 1-23 1-8-1-4-4-3-11-1-9v-10l6-8 5-4 7-2 16-1-3-14z" fill="#F7F7F6"/>
<path transform="translate(1200,339)" d="m0 0h8l2 1 1 6-2 10 22 3 8 4 2 9v23l-3 6-4 4-8 2h-13l-9-2-5-5v-60z" fill="#F8F8F7"/>
<path transform="translate(516,102)" d="m0 0 4 1 2 2v13l4 1 16 1 3 1v6l-1 1-23 1 1 11v17l7 2 11 1 5 3-1 4-3 1h-14l-9-1-5-4-2-11-1-22-4-3-16-1-20 2-5 3 3 5 17 5 9 8v11l-3 6-3 1-12 1h-16l-7-1 2-5 1-1 23-1 4-2v-7l-17-4-8-4-3-4 1-7 3-10 5-2 6-1h12l6 1h10l12-1 3-14z" fill="#F6F6F5"/>
<path transform="translate(287,219)" d="m0 0 7 1 2 3-1 34 1 5v17l-3 6-5 2h-25l-5-3-4-9-3-14v-7l7-8 8-6 3-1h16v-7l-1-5 1-7z" fill="#F5F5F4"/>
<path transform="translate(618,955)" d="m0 0h13l7 2 6 7 1 3v20l-5 12-4 3-5 1-16 1v17l-9 1-4-1v-56l2-5 4-4z" fill="#F7F7F6"/>
<path transform="translate(665,937)" d="m0 0 4 1 2 5 1 11 18 1 8 3-4 3-15 3-8 1 1 26 1 2 17 3 7 2 8-1 11-6 1-3v-16l-4-8-8-4-4-1v-2l13-4h13l2 1 1 13-1 26 12 1 4 4v3l-5 2h-32l-13-1-10 1h-14l-6-2-2-2-2-12-2-22-9-3-5-3v-2l4-2 10-1 2-13z" fill="#F6F6F4"/>
<path transform="translate(1159,597)" d="m0 0h20l7 3 4 6 2 7v22l-4 6-4 3-9 2h-13l-7-2-7-8-3-8v-16l6-10 4-4z" fill="#F6F6F5"/>
<path transform="translate(123,119)" d="m0 0h8l9 2 5 5 3 7v23l-4 8-4 3-11 2h-9l-9-3-5-5-4-6-1-3v-14l4-9 9-8z" fill="#F5F5F4"/>
<path transform="translate(171,954)" d="m0 0h9l9 2 6 7 5 10 1 1v10l-3 7-6 10-4 2h-23l-7-3-6-12-1-12-1-2h2l2-6 7-9 3-3z" fill="#F6F6F5"/>
<path transform="translate(760,955)" d="m0 0h22l6 3 5 7 2 7v19l-6 9-4 2-6 1h-18l-6-3-5-8-2-5-1-11 3-10 6-8z" fill="#F6F6F5"/>
<path transform="translate(717,597)" d="m0 0h11l10 2 5 6 2 8v20l-4 8-4 3-8 2h-13l-9-3-6-8-3-9v-12l5-10 5-5z" fill="#F6F6F4"/>
<path transform="translate(1511,358)" d="m0 0h14l7 3 5 5 2 5 1 6v15l-3 8-4 5-5 2-14 1-10-2-5-4-5-9-1-4v-13l5-10 4-5z" fill="#F5F5F4"/>
<path transform="translate(1216,477)" d="m0 0h8l9 2 5 5 3 6 1 5v18l-3 7-4 4-9 2h-16l-7-3-5-8-2-4-1-7v-9l3-7 7-8 5-2z" fill="#F6F6F5"/>
<path transform="translate(566,955)" d="m0 0h17l7 4 5 10 1 4v12l-5 13-3 4-8 2h-14l-8-3-5-5-3-6-1-5v-11l4-10 7-7z" fill="#F5F5F4"/>
<path transform="translate(84,820)" d="m0 0h10l1 8-21 4-6 4-3 6 4 2 18 1 9 3 2 5v21l-4 7-6 2h-18l-9-3-6-8-2-10 1-15 4-12 6-8 12-5z" fill="#F5F4F3"/>
<path transform="translate(716,478)" d="m0 0h13l8 2 5 5 2 5 1 6v14l-3 9-4 5-7 2h-18l-6-3-4-5-5-10-1-9 3-10 7-8z" fill="#F6F6F5"/>
<path transform="translate(1e3 581)" d="m0 0h19l10 3 6 5 3 9v9l-2 7-5 7-6 3-16 2-4 1 2 11 1 6-1 1h-10l-2-3v-7l1-7-1-11v-31z" fill="#F7F7F6"/>
<path transform="translate(1062,461)" d="m0 0 14 1 9 3 5 6 3 9v10l-5 10-4 3-12 3-11 2 1 10 1 5h-12l-3-4 2-4 1-7-1-3v-39l3-4z" fill="#F7F7F6"/>
<path transform="translate(1355,342)" d="m0 0h15l12 4 5 4 3 7 1 13-3 7-5 5-9 4-15 3 1 10 1 5-3 2h-8l-3-5 1-6 1-5-1-3v-38l2-5z" fill="#F5F5F4"/>
<path transform="translate(217,955)" d="m0 0h21l5 5 5 14v17l-4 8-4 3-3 1h-24l-5-3-4-11-1-17 6-11 5-5z" fill="#F6F6F5"/>
<path transform="translate(268,120)" d="m0 0h15l8 3 5 6 2 11v13l-3 8-5 5-9 2h-11l-10-2-4-4-3-8v-9l3-14 4-6 5-4z" fill="#F5F5F4"/>
<path transform="translate(224,581)" d="m0 0h16l4 3 1 6-22 1-6 3h-2v8l5 4 16 7 10 6 4 9v2l6-1 1-3 5 1-4 2 6 5 9 2 25 2 1 4-2 2-5 1-26 1-7-2-3-3-1-10-7 2-1 5-5 6-2 1h-34l-5-1-1-6 1-1 31-1 7-2-2-6-5-6-21-9-7-8-2-5 1-5 3-6 3-3z" fill="#F4F4F3"/>
<path transform="translate(469,716)" d="m0 0h16l6 3 4 7 1 5v11l-2 2h-12l-22 2 5 8 5 2 25 1 2 1-1 5-1 1-12 1h-20l-6-3-3-4-3-8v-16l3-8 5-7z" fill="#F4F4F3"/>
<path transform="translate(409,955)" d="m0 0h24l8 2 3 7 3 29v8l-6 2h-29l-6-2-4-5v-10l7-11h7l16-2 4 1-2-10-9-1h-16l-3-2 1-4z" fill="#F6F6F5"/>
<path transform="translate(1313,581)" d="m0 0 4 2 1 3v9l28 2 9 2 3 3 3 10 1 12-2 11h-4l-3-5-2-15-3-6-4-3-15-1-12 1v17l1 12 25 3 2 1-2 4-9 2-15 1-7-2-4-6-2-7v-24l-10-2-3-2 1-5 9-3h3l2-10z" fill="#F7F7F6"/>
<path transform="translate(316,955)" d="m0 0h23l5 3 2 7v17l-5 1-4-1-7 1-17 1v7l6 3 18 1h7l2 1v6l-4 1-26 1-8-2-4-10-1-3v-19l3-6 2-2 2-5z" fill="#F5F5F4"/>
<path transform="translate(965,358)" d="m0 0h18l6 3 3 5 2 10v8l-1 2-6 1h-17l-11 1 1 8 8 2 27 2v4l-5 2-28 1-7-3-3-5-3-8 1-15 3-9 5-7z" fill="#F5F4F3"/>
<path transform="translate(514,358)" d="m0 0h12l12 2 4 4 2 10 1 19v12l-2 1h-32l-7-3-3-4-1-8 3-5 4-1 1-5 1-1 24-2 2-1v-6l-9-3-20-1-3-1 1-4 3-2z" fill="#F4F4F3"/>
<path transform="translate(671,119)" d="m0 0h12l7 2 2 1 4 17-1 7-1 1-29 2-5 4 5 5 15 2 17 1 2 1-1 4-15 2h-22l-4-3-3-12-1-1v-12l4-15 3-4z" fill="#F5F5F4"/>
<path transform="translate(223,222)" d="m0 0 7 1 4 6 7 24 7 21 1 11-1 1h-10l-4-20h-2l-4-20-3-9-2-1-1 6-6 27 11-3 5 1 1 5-5 5h-11l-4-1-2 5-2 4-2 1h-7l-1-4 7-19 4-17 4-9 3-4 1-6z" fill="#F7F7F6"/>
<path transform="translate(800,461)" d="m0 0 5 1 3 2 2 23 16 1 7-1 1-2 2-22 2-2 4 1 2 2 2 61-2 1h-7l-2-2v-26l-1-2h-27l1 15 2 7 5 4-6 2h-9l-3-3 1-55z" fill="#F7F7F6"/>
<path transform="translate(706,697)" d="m0 0 5 1 3 5-1 20v11l10-8 8-8 2-1h9l2 1-1 5-10 7-6 4 1 8 6 10 7 3 4 3-1 5-1 1h-10l-4-2-6-8-8-12-3 1 2 14v6l-1 1h-8l-2-2-1-18v-17l1-3v-11l-2-10 2-5z" fill="#F7F8F7"/>
<path transform="translate(553,220)" d="m0 0h8l3 3v29l-1 4 3-1 4-4 8-6 6-5h11l1 4-8 5-8 6-1 1v8l4 6 3 5 7 4 3 3-1 4-1 1h-10l-5-3-10-15-1-7-1-1-3 5 1 19-2 2h-8l-1-1v-12l-1-7v-36l-1-10z" fill="#F5F5F4"/>
<path transform="translate(112,935)" d="m0 0 5 3v17h21l4 2 3 6 1 14h3v2l-2 1-2 20-2 3h-7l-2-3 1-12 1-15-3-6-7-3-7-2h-2v38l-5 2h-6l1-14-1-5v-26l2-10-3-1 1-4 2-5z" fill="#F7F7F6"/>
<path transform="translate(225,342)" d="m0 0h12l6 5 6 4v2h-9l-6-1h-11l-7 4-1 7v2l5 2 16 7 9 6 4 12-1 7-8 6-2 1h-30l-6-2-2-2v-3l2-1 32-1 4-1-2-8-4-5-22-9-6-7-2-5 1-5 5-8 8-4z" fill="#F4F4F3"/>
<path transform="translate(953,458)" d="m0 0h6l3 2v18h21l5 3 2 2 1 5v36l-1 1h-8l-3-2 3-13-1-1v-20l-1-1-17-1v37l-1 1h-8l-2-3v-42l-2-16 1-5z" fill="#F7F7F6"/>
<path transform="translate(256,340)" d="m0 0h8l2 2v16l4-1h9l9 2 5 5 2 4 1 13 2 1h-3v22l-3 3-7-1-1-8v-24l-3-6-10-2h-5v39l-2 1h-7l-1-1v-24l-1-28-3-4 2-6z" fill="#F4F4F3"/>
<path transform="translate(553,578)" d="m0 0h9l3 3-1 8v22l2 5 8-10 5-5 6-4h9l1 4-5 4-8 6-4 6v6l9 10 8 6v5l-2 1-9-1-10-9-5-6-1-6-4 4v16l-3 2h-6l-2-1z" fill="#F6F6F4"/>
<path transform="translate(223,462)" d="m0 0h19l2 3-1 5-1 1-21 1-6 3h-2l1 7 9 6 12 5 11 7 3 9-1 5-5 10-5 2-27-1-10-2-1-5 1-1h33l3-2v-6l-4-6-19-8-8-7-4-7 1-7 3-6 5-3z" fill="#F4F4F3"/>
<path transform="translate(1245,359)" d="m0 0h8l7 6 6 28 4-4 4-8 6-16 4-6h8l1 4-11 28-7 18-7 11-6 5-5 1h-9l-5-1 2-5 12-5 3-1 2-6v-9l-6-7-4-13-3-9-4-8z" fill="#F7F7F6"/>
<path transform="translate(555,458)" d="m0 0 6 1 2 1 1 3v29l1 3 4-5 9-6 7-6h10l1 4-9 6-7 5-2 3 1 7 6 9 10 8v5l-1 1h-8l-8-5-8-11-1-3v-8l-3 1-2 11 1 11-1 3-8 1-1-1-2-25v-36z" fill="#F6F6F5"/>
<path transform="translate(62,700)" d="m0 0h20l12 1v10l-1 1-25-1-1 8 3 5 6 2 14 3 5 5 1 7-1 15-3 6-7 1h-28l-3-2v-5l24-1 6-2 2-2 1-8-1-6-20-2-7-3-1-2v-24z" fill="#F4F4F3"/>
<path transform="translate(605,338)" d="m0 0 7 2 2 5v32l8-6 10-11 2-1h8l3 2-1 4-9 5-6 6v8l8 14 7 4h6l-5 5h-8l-6-3-7-7-5-8-1-9h-2v4l-2 1v19l-3 2h-7l-1-4 1-17-1-4v-29l-1-4v-7z" fill="#F5F5F4"/>
<path transform="translate(79,940)" d="m0 0h14l7 2 5 5-7 3h-10l-12 1-8 4-3 10v15l3 10 7 3 18 1 7 2 2 4-2 2-8 1h-23l-7-3-5-6-4-13v-20l4-9 7-8z" fill="#F5F5F4"/>
<path transform="translate(74,342)" d="m0 0 9 1 9 6 3 5 1 8-4 11-7 9-12 12 2 2 11 2 12 1 4 4-2 3-4 1h-17l-23-1-4-3 2-4 11-8 11-13 6-9 1-9-1-6-1-4-9 2-4 3-4 1h-7l-2-2 1-4 4-3z" fill="#F5F5F4"/>
<path transform="translate(301,839)" d="m0 0 10 2 7 4 3 7 1 6v8l-3 7-16 8-9-3-5-4-4-8-1-3v-7l4-8 8-7z" fill="#1B1A1A"/>
<path transform="translate(458,239)" d="m0 0h22l8 2 5 6 2 12 1 26-6 2h-27l-7-2-4-4-1-3v-9l3-3h3l4 8 6 4 4 1h10l3-2 1-10v-2l-13 3-9-1-5-3-1-4 4-1 24-1-3-9-3-1-21-1-3-1-1-3z" fill="#F5F4F3"/>
<path transform="translate(459,596)" d="m0 0h18l11 2 4 4 2 8 2 32 1 2-6 1h-28l-7-2-5-6-1-7 3-6 4 2 6 8 8 3h10l3-1 2-13-14 3-9-1-5-3-1-4h3 2l14-2h9l-1-8-2-2-4-1h-19l-5-3 3-5z" fill="#F5F5F4"/>
<path transform="translate(458,477)" d="m0 0h20l10 2 4 5 2 6 2 34-7 2h-11l-19-1-5-3-3-4v-10l4-4 7 10 6 3 5 1h9l2-2 1-12-11 2h-10l-7-5 1-3 27-1-3-9-4-2-22-1-2-3z" fill="#F5F5F4"/>
<path transform="translate(53,102)" d="m0 0h9l15 1 19-1 2 3-1 7-6 4-6-1v5l-1 1-1 7-1 37-3 3h-7l-2-3v-47l-3-1-11-1-4-4-1-5z" fill="#CFCDCC"/>
<path transform="translate(366,820)" d="m0 0h5l3 3-1 11 16 1 7 2 1 5-2 2h-23l1 29 6 2 16 1 1 1v6l-2 1h-23l-6-4-4-12v-23l-9-1-5-3 1-3 10-4h3l1-9 2-4z" fill="#F9F9F8"/>
<path transform="translate(819,352)" d="m0 0 9 1 4 2 3 6 1 6v20l-2 6-4 4-3 1h-10l-6-3-3-4-2-10 1-13 4-9 5-6z" fill="#1B1A1A"/>
<path transform="translate(312,696)" d="m0 0h14l6 2 1 1-1 39-1 13-1 2 11 2 5 3 2 5-10 2h-17v-2h-18l4-4 11-6 1-3 1-14v-17l-2-11-3-3-10-5 1-3z" fill="#D8DCDC"/>
<path transform="translate(608,716)" d="m0 0h21l9 2 4 5 1 4 1 20v16l-2 1h-32l-5-2-5-6-1-8 3-4h3l4 8 9 4 11 1 5-1 1-13-13 2-10-1-5-3 1-3 14-2h12l-1-10-3-1-24-1-3-3z" fill="#F4F4F3"/>
<path transform="translate(418,579)" d="m0 0 20 1 4-1 4 3v8l-5 3-11-1 1 51-2 2h-9l-1-1v-33l1-17-14-1-6-2-1-1v-7l1-2z" fill="#CFCDCB"/>
<path transform="translate(79,222)" d="m0 0 4 1 2 3v51l13 4 2 1v4l-2 1h-41l-3-2v-4l5-2 13-3 1-37-14 1-3-2 1-7 15-4z" fill="#F7F7F6"/>
<path transform="translate(69,461)" d="m0 0 13 1 8 4 4 5v12l-2 5-2 1v3l2 1 3 6 1 15-4 9-6 2h-21l-10-2-1-4 1-1 28-2 4-2-1-8-3-8-3-1-11-1-5-3-2-4 2-1 15-1 3-1 1-7-2-10-12 2-7 2-2-1-1-5 4-5z" fill="#F3F3F2"/>
<path transform="translate(664,462)" d="m0 0 6 1 2 4v9l20 2 3 3-1 5-22 1-1 9v20l6 1h10l8-1 1 7-9 3h-16l-7-3-3-7-1-6v-22l-7-1-5-4-1-3 4-3 12-1-1-3v-8z" fill="#F7F7F6"/>
<path transform="translate(213,711)" d="m0 0h15l7 3 3 8v27l-2 4-6 2h-12l-6-1-1-4v-21z" fill="#1B1A1A"/>
<path transform="translate(412,461)" d="m0 0h33l2 7-3 5h-14v51l-1 2h-9l-1-1-1-49-16-5-3-3v-5l1-1z" fill="#CFCECC"/>
<path transform="translate(215,114)" d="m0 0h9l9 2 3 3 2 8 1 21-2 5-6 5-3 1h-12l-4-3-1-15 1-19 1-7z" fill="#1B1A1A"/>
<path transform="translate(403,223)" d="m0 0h39l4 1 1 2v6l-2 3-15-1v52l-2 1h-9l-1-5 1-15v-31l-17-3-3-4 1-5z" fill="#CFCECC"/>
<path transform="translate(664,582)" d="m0 0h6l2 2 1 5-2 5 2 1 16 1 3 2 1 7-8 1-13-1-1 11v19l6 1h10l6-1 2 3-1 4-6 3h-17l-7-3-3-5-1-4v-14l1-12-8-1-5-3-1-4 2-2 14-2-1-4v-7z" fill="#F7F7F6"/>
<path transform="translate(588,699)" d="m0 0h5l2 2v8l-3 3-13-1 1 52-1 1h-10l-1-1v-50l-9-1-9-2-2-2v-6l1-2h37z" fill="#CFCDCB"/>
<path transform="translate(450,342)" d="m0 0h45l1 1v8l-1 3h-15l-1 51-2 1h-8l-1-1 1-49-13-2-6-2-2-5z" fill="#CFCDCB"/>
<path transform="translate(755,120)" d="m0 0h7l2 1-1 7v30l5 2h14v-39l1-1h6l3 2v44l-4 2h-10l-14 1-8-2-2-3-1-6-1-16v-17z" fill="#F3F3F2"/>
<path transform="translate(317,462)" d="m0 0 5 1 2 2v12l19 1 4 2-1 5-2 1-21 2v16l-1 12 23 2 2 4-2 3h-26l-4-2-2-8v-29h-5v-2l-11-2 1-3 11-2 2-1 3-12z" fill="#F8F8F7"/>
<path transform="translate(719,119)" d="m0 0 17 1 4 4 2 9 1 32-4 3h-5l-2-2v-14l-2-24h-13l-3 2v37l-1 1h-7l-2-2-1-23v-16l2-5 5-2z" fill="#F5F5F4"/>
<path transform="translate(468,955)" d="m0 0 22 1 3 2 1 20v24l-1 1h-7l-3-2 1-14-1-22-5-1h-9l-4 1-1 7 2 30h-9l-2-5-1-21v-13l3-6 2-1z" fill="#F5F4F3"/>
<path transform="translate(807,956)" d="m0 0h29l4 3 2 13v28l-2 3h-6l-3-3v-33l-1-2-6-1h-8l-3 3v35l-1 1h-6l-3-2v-40z" fill="#F4F4F3"/>
<path transform="translate(270,954)" d="m0 0h14l8 3 1 5-1 1h-22l-3 3 2 6 18 5 10 10-3 9-3 5-8 2h-24l-4-2-1-5 1-2 16 1 10-2 3-4 1-4-14-2-11-4-3-5v-5l2-6 2-7z" fill="#F5F5F4"/>
<path transform="translate(316,581)" d="m0 0 5 1 2 2v11l17 2 7 2v5l-1 1-23 1 1 29 11 2 11 1 1 5-3 2h-24l-5-3-1-17v-13l1-5-3-3-5-2-10-1 4-3 10-2 3-13z" fill="#F6F6F5"/>
<path transform="translate(523,596)" d="m0 0 14 1 7 2 2 4-7 1h-18l-7 2 2 7 3 2 14 3 9 6 2 2v10l-3 7-4 2h-30l-3-1-1-4 1-3h27l2-1 1-9-20-3-6-3-2-2-1-7 3-13 4-2z" fill="#F3F3F2"/>
<path transform="translate(521,238)" d="m0 0 13 1 8 2 1 4-4 2h-21l-4 2v5l5 3 13 3 5 3v2l6 2 2 3-1 10-4 6-4 1h-26l-6-2v-5l1-1h26l3-1-1-7-9-3-12-3-6-4-1-2v-6l4-13 2-1z" fill="#F2F2F1"/>
<path transform="translate(1751,338)" d="m0 0h7l6 3 8 10 4 8 2 7 1 9v11l-2 14-5 13-6 8-5 4-9 1-2-1 1-5 6-5 6-10 5-15v-17l-3-12-6-11-8-10z" fill="#F6F6F5"/>
<path transform="translate(210,820)" d="m0 0h35l3 9-1 2-19-2-9 2v17l8-2 13-1 6 2 1 3-3 3-9 1-17 1-2 6-1 7-5 1h-1l-1 10h-1v-36l1-20z" fill="#F8F7F6"/>
<path transform="translate(515,477)" d="m0 0h16l11 3 2 3-5 2h-19l-6 2-1 4 1 3 16 4 6 3 7 5 1 2v10l-3 6-2 1h-32l-3-2v-6l28 1 2-3-1-1v-5l-16-4-9-3-4-6 3-9 2-8z" fill="#F3F3F2"/>
<path transform="translate(667,358)" d="m0 0h16l7 3 1 5-1 1-20-1-6 3 1 6 7 2 11 3 8 5 2 4-1 8-3 7-6 2h-23l-7-2-1-1v-6l5 1h22l3-7-3-3-14-2-8-4-3-6 4-15 3-2z" fill="#F5F5F4"/>
<path transform="translate(777,338)" d="m0 0h7l3 3-4 7-5 5-4 6-4 13v13l3 14 6 12 9 14v1h-8l-8-6-8-14-5-16v-20l5-14 7-12 4-4h2z" fill="#F7F7F6"/>
<path transform="translate(570,358)" d="m0 0h11l10 2 1 4-4 2h-15l-8 2-2 4 3 4 16 3 6 4 5 4 1 2v8l-5 8-2 1h-30l-3-2v-6h10l14 1 5-2v-7l-13-3-11-3-4-5v-7l4-11 2-2z" fill="#F3F3F2"/>
<path transform="translate(1734,357)" d="m0 0h5l2 4-7 20-13 32-6 9-11 4h-13l-2-1 1-3 15-8 4-5 1-8-4-5 1-2 3 3v-11l2 4 2 5 8-15 6-16 4-6z" fill="#F6F6F5"/>
<path transform="translate(664,716)" d="m0 0h18l9 2v5l-2 1h-22l-3 1v6l4 4 14 2 9 6 2 5-1 11-3 5-28 1-8-2v-5l1-1h26l4-1-2-9-22-4-5-4v-8l3-13z" fill="#F3F3F1"/>
<path transform="translate(83,594)" d="m0 0 4 1 1 26 1 6 3 1v15l-2 1h-8l-3-9h-10l-14-1-4-3 1-7 7-16 7-8 3-3 5-2 5 1-2 4-7 6-5 15-1 4 16 1 2 1-2-4v-13l2-15z" fill="#F7F7F6"/>
<path transform="translate(1461,356)" d="m0 0 12 1 2 3v32l-1 4 7 1 7 2 1 5-5 3h-32l-4-2-1-4 2-2 12-3 3-1-1-17-3-9-7-6 1-5z" fill="#D6D8D8"/>
<path transform="translate(1384,596)" d="m0 0 6 1 2 1-1 7-7 19-12 29-6 8-6 3-5 1h-8l-6-2 5-5 12-6 4-6v-11l3 1 11-25 4-11z" fill="#F9F9F8"/>
<path transform="translate(857,477)" d="m0 0h21l1 1v14l-2 21-2 2 15 2 3 3 2 5-4 1h-36l-4-2 1-4 4-3 12-3-1-2v-16l-1-5-10-7-1-5z" fill="#F6F6F5"/>
<path transform="translate(1259,595)" d="m0 0 15 1 2 2 1 4v18l-1 14 13 2 2 2v5l-3 2h-37l-4-4 1-3 13-3 4-3h2l-4-22-5-6-5-5 3-3z" fill="#D9DEDF"/>
<path transform="translate(1313,476)" d="m0 0 11 1 2 3 1 5-1 18-1 7-2 2 9 3 8 4 1 4-2 2-19 1h-15l-6-2-2-5 13-4 5-3-1-8v-8l-1-6-9-7-1-4 4-2z" fill="#D1D1D0"/>
<path transform="translate(1108,595)" d="m0 0h10l8 1 2 7-1 14v16l-2 1 14 2 3 3-1 4-4 2h-34l-3-1-2-3 1-4 16-3 2-1-1-13-4-12-7-6v-5z" fill="#DBE1E2"/>
<path transform="translate(1611,356)" d="m0 0 10 1 3 3v36l13 3 2 2-1 5-7 1h-30l-5-2 1-5 13-4 3-1v-13l-3-12-8-8 2-4z" fill="#D6D9D8"/>
<path transform="translate(418,118)" d="m0 0 13 2v39l13 2 5 3v3l-3 1h-37l-6-1 1-4 6-3 8-3 2-4 1-21-14-4-2-2 1-5z" fill="#F9F9F8"/>
<path transform="translate(1436,477)" d="m0 0h6l-1 8-5 11-11 30-7 14-5 4-3 1h-16l-2-1 1-5 16-6 3-4 1-5v-6l-5 1v-3l2 1 1-7 4 2 4-4 5-11 4-9 5-9z" fill="#F6F6F5"/>
<path transform="translate(808,581)" d="m0 0 5 1 2 3v43l1 7 3 1h23l2 2v5l-3 2-12 1h-18l-5-2-1-2v-55z" fill="#F4F4F3"/>
<path transform="translate(1068,596)" d="m0 0h15l7 2 4 8 1 9-7-1-6-4-3-3-3-1h-9l-3 5-1 32-4 2-6-1-1-2 1-38 3-6 2-1z" fill="#F8F8F7"/>
<path transform="translate(1107,478)" d="m0 0h31l4 4 3 10-1 5-6-1-10-8-2-1h-11l-1 6-1 30-5 2-5-1-2-3 1-10v-25l3-6z" fill="#F5F5F4"/>
<path transform="translate(363,100)" d="m0 0h3l1 2 1 57 29 1 2 2v4l-9 2h-29l-3-2v-49l1-10z" fill="#F2F1F0"/>
<path transform="translate(311,835)" d="m0 0h15l5 5 1 18v12l-1 5 13 1 2 1v6h-39l-3-2h2v-2l11-6h2l2-7v-8l-3-12-7-4-7-2v-4z" fill="#F7F7F6"/>
<path transform="translate(319,366)" d="m0 0h8l7 3 6 7v8l-2 9-4 5-7 2h-7l-6-3-3-7v-13l4-9z" fill="#1B1A1A"/>
<path transform="translate(1256,478)" d="m0 0h31l4 5 3 8v4l-6 1-6-4-3-3-8-2h-6l-2 8-1 25-1 5-6 1-4-2 1-38 3-7z" fill="#F4F4F3"/>
<path transform="translate(1405,358)" d="m0 0h25l6 2 5 5 2 5v6h-7l-7-6v-2l-5-1h-8l-4 4-1 22v11l-3 2-7-1-1-2 1-39z" fill="#F4F4F3"/>
<path transform="translate(1211,597)" d="m0 0h26l4 4 3 7v7h-6l-6-4-5-4-3-1h-7l-3 4-1 6-1 29h-9l-1-7v-32l3-7z" fill="#F6F6F5"/>
<path transform="translate(1555,358)" d="m0 0h22l10 2 5 8 1 7-1 1-8-1-6-4v-2l-12-2-5 4-1 6v29l-7 1-3-2v-35l2-9z" fill="#F5F5F4"/>
<path transform="translate(420,708)" d="m0 0 2 1v6h15l7 2 2 2v5l-23 1-1 11v10l1 8 8 2h12l2 1v5l-3 2-13 1-13-2-2-2v-18h1l1-17-2 2-2-6-8-1-5-1 1-2 11-1 4-4v2h2l1-5z" fill="#F7F7F6"/>
<path transform="translate(718,605)" d="m0 0h10l6 5 2 7v14l-3 5-5 2h-9l-6-3-4-5-1-4v-10l3-7 4-3z" fill="#1B1A1A"/>
<path transform="translate(866,605)" d="m0 0h8l6 3 7 8-1 12-3 6-4 3-3 1h-9l-6-3-2-3-1-5v-12l3-7z" fill="#1B1A1A"/>
<path transform="translate(123,127)" d="m0 0h7l5 2 3 4 1 3v20l-5 4h-13l-6-3-3-5v-13l4-8 4-3z" fill="#1B1A1A"/>
<path transform="translate(1513,366)" d="m0 0h10l5 5 2 4 1 7v10l-4 6-7 2-10-1-5-6-2-12 3-9 5-5z" fill="#1B1A1A"/>
<path transform="translate(83,578)" d="m0 0 4 2 5 5-2 6v14l1 17 2 4h3l5 3 2 2-4 1-5 6-2 3v-13l-4-1-1-6v-26h-4l-2 15v13l1 4-14-1-4-1 1-8 4-11 9-8v-2l-6 1-5 3-5 5 2-5 11-14z" fill="#D1D0CF"/>
<path transform="translate(1165,605)" d="m0 0h8l5 2 4 6 1 5v14l-5 5-3 1h-10l-6-3-3-8v-13l3-6z" fill="#1B1A1A"/>
<path transform="translate(170,963)" d="m0 0h12l5 5 2 5v15l-3 5-9 3-8-1-5-3-2-4v-15l3-6z" fill="#1B1A1A"/>
<path transform="translate(1022,358)" d="m0 0 15 1 4 3 4 12v7l-4-1-7-8-3-4-3-1h-10l-3 4-1 5-1 29-1 1h-8l-1-3v-30l2-12 1-2z" fill="#F5F5F4"/>
<path transform="translate(271,128)" d="m0 0h10l5 3 2 5v18l-2 4-4 2h-12l-6-3-3-6v-11l2-7 5-4z" fill="#1B1A1A"/>
<path transform="translate(1216,485)" d="m0 0 10 1 5 5 2 11v8l-2 5-4 3-10 1-7-3-4-8v-13l3-6 4-3z" fill="#1B1A1A"/>
<path transform="translate(220,963)" d="m0 0h11l5 3 2 5v20l-3 3-12 2-7-2-3-4-1-3v-15l4-7z" fill="#1B1A1A"/>
<path transform="translate(718,486)" d="m0 0h10l5 3 2 4v20l-4 4-2 1h-13l-7-8-1-3v-12l4-6z" fill="#1B1A1A"/>
<path transform="translate(766,963)" d="m0 0h13l5 6 1 5v16l-4 4-3 1h-12l-5-3-2-5v-16l3-5z" fill="#1B1A1A"/>
<path transform="translate(569,963)" d="m0 0h11l4 4 2 6v15l-3 5-3 2h-12l-6-3-2-4v-15l3-6 3-3z" fill="#1B1A1A"/>
<path transform="translate(858,359)" d="m0 0h27l6 2 4 9 1 10-3-1-9-9-9-2h-7l-3 7-1 24v5l-2 2h-7l-1-1 1-36 2-9z" fill="#F5F4F3"/>
<path transform="translate(1116,366)" d="m0 0h14l1 1v18l-1 11-2 2-10 1-8-3-3-5-1-3v-9l2-8 4-4z" fill="#1B1A1A"/>
<path transform="translate(636,104)" d="m0 0h7l2 3v10l-1 2v8l3 21v17l-2 3h-7l-1-1v-16l-2-13-3-11-3-1-1-7 4-12z" fill="#F4F4F2"/>
<path transform="translate(202,700)" d="m0 0h13l17 2 6 3-4 2-1 1-11-1h-10l1 2 15 1v1h-15l-1 18v25h6v1h-10l-5-2-2 1v-37z" fill="#DFE4E4"/>
<path transform="translate(320,247)" d="m0 0h14l2 2v15l-1 11-5 4-9 1-6-3-3-6-1-4 1-13 5-6z" fill="#1B1A1A"/>
<path transform="translate(603,104)" d="m0 0h7l2 1 2 5v8l4 5-1 3-7 4-2 9-1 21v7h-9l-1-1v-12l3-44 2-5z" fill="#F3F3F2"/>
<path transform="translate(921,366)" d="m0 0 11 1v18l-2 13-6 1-13-2-3-3v-12l3-14z" fill="#1B1A1A"/>
<path transform="translate(359,718)" d="m0 0 2 1 2 7 1 12h2l2-2h14v1l-15 2-1 4-3 3h-2l4 7 7 3 15 1h8l3 2-1 4-2 1h-33l-7-6-4-9v-17l3-6z" fill="#F4F4F3"/>
<path transform="translate(1210,366)" d="m0 0 18 1 3 3 1 5v17l-2 4-5 2h-12l-4-2v-29z" fill="#1B1A1A"/>
<path transform="translate(269,247)" d="m0 0h11l3 1 3 7v11l-2 9-4 4-2 1h-10l-4-5-2-11v-8l3-6z" fill="#1B1A1A"/>
<path transform="translate(616,963)" d="m0 0 14 1 4 3 2 8v10l-2 6-6 4-4 1h-9l-2-4v-26z" fill="#1B1A1A"/>
<path transform="translate(733,717)" d="m0 0h9l2 1-1 5-10 7-6 4 1 8 6 10 7 3 4 3-1 5-1 1h-10l-4-2-6-8-8-12h-3l1-5-1-1v-13h1v11l10-8 8-8z" fill="#F5F5F4"/>
<path transform="translate(1356,484)" d="m0 0 20 1v1l-7 1-2 9v13l1 7 24 3 1 5-1 1-7 1h-19l-5-2-4-5-2-10v-10l1-13h-10v-1z" fill="#F5F4F3"/>
<path transform="translate(941,596)" d="m0 0 8 3-3 11-4 26v6l-3 3-2 1h-8l-3-3v-7l6-21 4-16z" fill="#F9F9F8"/>
<path transform="translate(1651,366)" d="m0 0h16l-2 13v9l1 7 7 3 17 2 1 3-1 2-10 2h-15l-6-3-4-6-2-12v-17l-5-1z" fill="#F5F5F4"/>
<path transform="translate(393,358)" d="m0 0 5 1 3 1-1 9-3 15-1 13 1 5-4 5h-8l-6-4v-8l4-7 3-8 3-19z" fill="#FBFBFA"/>
<path transform="translate(605,338)" d="m0 0 7 2 1 40h2v3l-2 1v9l1 3v8l-3 2h-7l-1-4 1-17-1-4v-29l-1-4v-7z" fill="#F8F8F7"/>
<path transform="translate(553,220)" d="m0 0h8l2 2v5h-2l1 5 1 25 1 1v6l-1 5 1 10 1 1v5l-2 2h-8l-1-1v-12l-1-7v-36l-1-10z" fill="#FBFBFA"/>
<path transform="translate(290,836)" d="m0 0 14 1v2l-10 4-7 8-2 5v7l4 9 5 5 12 4 1 1h20l18 1v1h-54l-6-2-5-5-4-8v-16l5-10 7-6z" fill="#F6F6F5"/>
<path transform="translate(714,953)" d="m0 0h13l2 1 1 13-1 26 4 1h-6l-3-1-7-2v-19l-4-8-8-4-4-1v-2z" fill="#D8DDDD"/>
<path transform="translate(585,597)" d="m0 0h9l1 4-5 4-8 6-4 6v6l9 10 8 6v5l-2 1-9-1-10-9-5-6v-6l2-2-1-8 2-5 5-4 5-5z" fill="#F5F5F4"/>
<path transform="translate(68,854)" d="m0 0h21l2 2v10l-2 5-3 3-4 1h-10l-8-4-2-4v-12z" fill="#1B1A1A"/>
<path transform="translate(366,820)" d="m0 0h5l3 3-1 11 16 1 7 2 1 5-1 1-44 1-5-3 1-3 10-4h3l1-9 2-4z" fill="#FBFBFA"/>
<path transform="translate(1064,471)" d="m0 0 12 1 5 3 1 2v14l-4 5-4 2h-10l-4-3-1-9 1-13z" fill="#1B1A1A"/>
<path transform="translate(618,955)" d="m0 0h13v1l-22 2 2 3-1 3v26l1 12 6 1-2 1v17l-9 1-4-1v-56l2-5 4-4z" fill="#CFCECC"/>
<path transform="translate(1013,591)" d="m0 0h12l6 3 1 2v13l-4 6-6 3-8-1-4-4-1-3v-11l2-7z" fill="#1B1A1A"/>
<path transform="translate(317,462)" d="m0 0 5 1 2 2v12l19 1 4 2-1 5-2 1-29 1-9-3-9-2 1-3 11-2 2-1 3-12z" fill="#FCFCFB"/>
<path transform="translate(1159,476)" d="m0 0h15l3 3 1 3v10l-2 18-3 1h-8l-1-18-3-5-6-5-1-5z" fill="#DEE1E1"/>
<path transform="translate(369,368)" d="m0 0 5 1 4 7 2 7-1 5-4 4h-3l-3 10-4 5h-8l-3-3v-7l3-7 5-2 3-7 2-11z" fill="#F7F7F6"/>
<path transform="translate(1359,352)" d="m0 0h11l7 2 3 4v13l-5 5-3 2h-11l-4-3 1-14 1-5z" fill="#1B1A1A"/>
<path transform="translate(915,606)" d="m0 0 4 1 3 3 2 3v12l-10 18-4 3h-7l-3-3 1-6 4-8 3-1 5-17z" fill="#F7F7F6"/>
<path transform="translate(72,382)" d="m0 0h1l-1 7-3 3v2l4 1 5 2 20 2 4 4-2 3-4 1h-17l-23-1-4-3 2-4 11-8z" fill="#F4F4F3"/>
<path transform="translate(1245,359)" d="m0 0h8l7 6 6 28 4-4 4-8 2-6h1l-1 8-5 11-3 5-4 1v8h-1l-1-9-6-7-4-13-3-9-4-8z" fill="#F5F5F4"/>
<path transform="translate(1e3 581)" d="m0 0h19l10 3 1 2-3 1 2 3-10-3-4-1h-10l-5 1v-2h-3l1 39 1 1h10l-4 2 2 11 1 6-1 1h-10l-2-3v-7l1-7-1-11v-31z" fill="#D0CFCE"/>
<path transform="translate(243,618)" d="m0 0 3 1 4 9v2l6-1 1-3 5 1-4 2 6 5 9 2 25 2 1 4-2 2-5 1-26 1-7-2-3-3-1-10-7 2-1 3 1-7z" fill="#F6F6F5"/>
<path transform="translate(69,461)" d="m0 0 13 1 8 4 4 5v12l-1 3-6 1h-3l-3-18-12 2-7 2-2-1-1-5 4-5z" fill="#F8F8F7"/>
<path transform="translate(1163,514)" d="m0 0 19 1 7 1 3 4-2 4-5 2h-26l-10-2-1-4 8-3z" fill="#F4F4F3"/>
<path transform="translate(1314,607)" d="m0 0h2v19l1 10 15 2 13 1-2 4-9 2-15 1-7-2-4-6-1-10 3-7 2-12z" fill="#FAF9F8"/>
<path transform="translate(312,696)" d="m0 0h14l6 2 1 1-1 39-1 13-1 2-3-1-2-9-1-17v-15l2-5v-6l-3-2h-10l-8 2 1-3z" fill="#CFCDCB"/>
<path transform="translate(1115,634)" d="m0 0 16 1 10 2 1 5-5 3h-34l-3-1-2-3 1-4z" fill="#F6F6F5"/>
<path transform="translate(569,711)" d="m0 0h5l4 1-1 14-1 3v8l1 1 1 21h2l-1 5h-10z" fill="#DAE0E0"/>
<path transform="translate(514,358)" d="m0 0h12l12 2 4 4 2 10v19h-1l-1-17-3 2h-6l2-2v-6l-9-3-20-1-3-1 1-4 3-2z" fill="#F7F7F6"/>
<path transform="translate(1310,515)" d="m0 0h5v2l3-2 12 1 9 2 2 2-1 4-1 1-19 1h-15l-6-2-2-5z" fill="#F4F4F3"/>
<path transform="translate(1263,634)" d="m0 0h8l8 2 11 1 1 1v5l-3 2h-37l-4-4 1-3 13-3z" fill="#F5F5F4"/>
<path transform="translate(716,991)" d="m0 0 10 1 1 1 14 1 4 4v3l-5 2h-32l-7-2v-3l7-3z" fill="#F7F7F6"/>
<path transform="translate(1614,394)" d="m0 0 1 2 9 1 13 2 2 2-1 5-7 1h-30l-5-2 1-5 13-4z" fill="#F6F6F5"/>
<path transform="translate(1462,395)" d="m0 0 9 2 2 1 15 1 1 5-5 3h-32l-4-2-1-4 2-2 12-3z" fill="#F5F5F4"/>
<path transform="translate(79,594)" d="m0 0h2v29l1 4-14-1-4-1 1-8 4-11 9-8z" fill="#1B1A1A"/>
<path transform="translate(323,754)" d="m0 0 11 1h7l5 3 2 5-10 2h-17v-2h-18l4-4 8-4h7z" fill="#F7F7F6"/>
<path transform="translate(223,462)" d="m0 0h19l2 3-1 5-1 1-21 1-9 3h-6l-1-6 3-3z" fill="#F6F6F5"/>
<path transform="translate(656,154)" d="m0 0h5l4 4 15 2 17 1 2 1-1 4-15 2h-22l-4-3-1-3z" fill="#FCFCFB"/>
<path transform="translate(908,525)" d="m0 0h27l2 2-1 6-4 4-2 1h-13l-7-3-3-6z" fill="#1B1A1A"/>
<path transform="translate(224,581)" d="m0 0h16l4 3 1 6-22 1-9 4h-8v-6l3-3z" fill="#FCFCFB"/>
<path transform="translate(507,385)" d="m0 0 15 1h13l1 1v9l-3 3h-12l-9-3-3-3z" fill="#1B1A1A"/>
<path transform="translate(410,981)" d="m0 0 7 1h8l10-1 2 3-1 9-5 3h-7l-9-3-4-3z" fill="#1B1A1A"/>
<path transform="translate(857,477)" d="m0 0h21l1 1v14l-1 15h-1l-1-11-3-2v-3l-9-1-9-7 1-5z" fill="#F7F7F6"/>
<path transform="translate(270,954)" d="m0 0h14l8 3 1 5-1 1h-22l-3 3v5l-9-1-1 4v-5l2-6 2-7z" fill="#F2F2F1"/>
<path transform="translate(370,723)" d="m0 0h13l6 2-1 8-6 3-14 1-4 3-1-2v-10l4-4z" fill="#1B1A1A"/>
<path transform="translate(800,461)" d="m0 0 5 1 3 2 2 23 10 1v1h-20l-1 29h-1v-52z" fill="#D8DCDC"/>
<path transform="translate(416,700)" d="m0 0 5 2 2 6 1 7h-2l-1-6-3 3-1 3-3-1-3 4-11 1 10 2 3 1 1 5 2-2 1 1-1 24h-1l-1 8h-1l-1-7-1-25-6-3-8-1-1 4-4-5-3-3 5 1 5-2h11l2-12z" fill="#D0CECD"/>
<path transform="translate(393,358)" d="m0 0 5 1 3 1-1 9-3 15-1 13 1 5-4 5h-8l-6-4v-8h1l1 7 7 1-1-4 3-3 3-1 1-5 1-19-4-2 1-3h-2v8l-2 6h-1l1-11 1-8z" fill="#D0CECD"/>
<path transform="translate(270,604)" d="m0 0h15l4 1-1 8-2 3-8 2h-10l-4-4v-6l2-3z" fill="#1B1A1A"/>
<path transform="translate(471,352)" d="m0 0 4 2 1 2v41l2 3v4l-2 1h-8v-11h2v-34z" fill="#FCFCFB"/>
<path transform="translate(145,970)" d="m0 0h1v7h3v2l-2 1-2 20-2 3h-7l-2-3 1-12 2-15 8 3z" fill="#F2F2F1"/>
<path transform="translate(120,956)" d="m0 0h21l4 7v13l-5-1-4-2-3-6-7-3-7-2z" fill="#F9F9F8"/>
<path transform="translate(484,151)" d="m0 0h1l1 5 6 1 2-3-1 9-2 3-3 1-12 1h-16l-7-1 2-5 1-1 23-1 4-2z" fill="#F4F4F3"/>
<path transform="translate(269,485)" d="m0 0h17l3 1v7l-3 3-8 2h-12l-2-3 1-7z" fill="#1B1A1A"/>
<path transform="translate(714,953)" d="m0 0h13l2 1v12l-2 1-6-1-2 6h-2l-4-8-8-4-4-1v-2z" fill="#F5F5F4"/>
<path transform="translate(953,458)" d="m0 0h6l3 2v18h21v1l-20 1-3 1-1-4h-2l-3-5v21l-1 29h-1v-42l-2-16 1-5z" fill="#CFCDCC"/>
<path transform="translate(270,724)" d="m0 0h12l5 2 1 1v6l-3 3-9 2h-7l-4-4-1-5 3-4z" fill="#1B1A1A"/>
<path transform="translate(320,962)" d="m0 0h13l5 3-1 7-2 2-5 1h-14l-2-2v-7l3-3z" fill="#1B1A1A"/>
<path transform="translate(420,233)" d="m0 0 5 1v26l1 16 3 5-1 6h-9l-1-5 1-8 1-1v-26l-1-13z" fill="#FAFAF9"/>
<path transform="translate(470,723)" d="m0 0h11l6 3-1 7-6 3h-17l-1-5 3-5z" fill="#1B1A1A"/>
<path transform="translate(966,366)" d="m0 0h16l2 2v7l-2 3-3 1h-17l-1-1 1-9z" fill="#1B1A1A"/>
<path transform="translate(161,140)" d="m0 0h26l7 2v4l-4 2h-27l-5-3v-4z" fill="#F1F1EF"/>
<path transform="translate(334,220)" d="m0 0h9l2 2 1 37v25l-1 2-4-1h3v-18l-1-28-4-1-3 2h-16v-1l16-1-3-14z" fill="#D4D6D5"/>
<path transform="translate(669,127)" d="m0 0h16v10l-8 3h-12l-2-2v-8z" fill="#1B1A1A"/>
<path transform="translate(1108,595)" d="m0 0h10l8 1v11l-4 1-7-1 2 5v4h-2l-4-9-6-5v-5z" fill="#F6F6F5"/>
<path transform="translate(621,125)" d="m0 0 5 2 1 1v11l-3 9-4 3-4 1-1-1v-13l1-7z" fill="#F2F1F0"/>
<path transform="translate(1068,366)" d="m0 0h9l4 1 2 5v4l-12 3h-10l-1-6 3-5z" fill="#1B1A1A"/>
<path transform="translate(661,941)" d="m0 0h1l2 7 1 24-2 2-1 13h-1l-2-22-9-3-5-3v-2l4-2 10-1z" fill="#D7DBDB"/>
<path transform="translate(366,820)" d="m0 0h5l3 3-1 11 16 1 7 2v1l-11 1-9-2-2-1h-19l3-2h3l1-9 2-4z" fill="#D0CFCD"/>
<path transform="translate(1050,466)" d="m0 0h1l1 6v32l1 3 4-1h8l-4 2 1 10 1 5h-12l-3-4 2-4 1-7-1-3z" fill="#D4D5D5"/>
<path transform="translate(70,114)" d="m0 0h3l2 7 3 35 2 6-1 6h-7l-2-3v-5h2v-44h-2z" fill="#FBFBFA"/>
<path transform="translate(122,630)" d="m0 0h7l5 3 1 10-3 2h-11l-5-3 1-5z" fill="#F7F7F6"/>
<path transform="translate(360,843)" d="m0 0h35v1h-23v29h-1v-27h-2l-2 19-2 2-1 8h-1l-2-10v-20h-5z" fill="#CFCDCB"/>
<path transform="translate(941,596)" d="m0 0 8 3-3 11-4 26v6l-1 2-2-1 1-9v-23l-5-1-1 2 2-13z" fill="#CFCDCB"/>
<path transform="translate(1200,339)" d="m0 0h8l2 1 1 6-2 9-5 1-1-8 1-5-3-3v10l1 2v16l-1 23-1 9h-1v-60z" fill="#D2D2D1"/>
<path transform="translate(122,868)" d="m0 0 7 1 5 4 2 7-3 3h-12l-5-3 1-6z" fill="#F5F5F4"/>
<path transform="translate(123,749)" d="m0 0h6l5 4 1 8-1 2-3 1h-11l-4-3 1-5z" fill="#F4F4F2"/>
<path transform="translate(1318,604)" d="m0 0h11v1l-12 1v17l1 12 25 3v1h-11l-13-2-3-3-1-8v-15l1-4-3 2-2 13-3 6v7l-2-4v-24l-7-1v-1z" fill="#D2D2D1"/>
<path transform="translate(1461,356)" d="m0 0 12 1 1 1v11h-10-4l-7-6 1-5z" fill="#F8F8F7"/>
<path transform="translate(421,590)" d="m0 0 4 2v44l-1 6 4 2h-8z" fill="#FEFEFD"/>
<path transform="translate(125,271)" d="m0 0 5 1 4 5 1 6-2 3-3 1h-10l-4-3 2-6 5-6z" fill="#F3F3F2"/>
<path transform="translate(124,510)" d="m0 0h5l5 5 1 8-2 2h-13l-5-3 2-4 5-7z" fill="#F3F4F3"/>
<path transform="translate(1362,461)" d="m0 0 3 1 3 7 1 7 2 1 23 1 11 1 2 2-38-2-5-1h-7l-4-2h3l1-9 2-5z" fill="#CFCECC"/>
<path transform="translate(1611,356)" d="m0 0 10 1 2 1v13h-3v-4h-2v2h-9l-7-7 2-4z" fill="#F7F7F6"/>
<path transform="translate(419,474)" d="m0 0 4 1 2 20v26l4 1-1 3h-8v-37z" fill="#FEFEFD"/>
<path transform="translate(124,391)" d="m0 0h5l4 4 2 5-1 5-3 2h-8l-6-3v-5z" fill="#F6F6F5"/>
<path transform="translate(1155,477)" d="m0 0h18l2 1v2l-2 1 4 2v8l-8-3h-8l-6-5-1-5z" fill="#FBFBFA"/>
<path transform="translate(202,700)" d="m0 0h13l17 2 6 3-4 2-1 1-9-1v-2h-17v-3h-4v49l-2 3v-37z" fill="#CFCDCB"/>
<path transform="translate(62,700)" d="m0 0h20l12 1v10l-1 1h-8v-1h7v-3h-11l-13-2-4-4-4 2z" fill="#D0CECC"/>
<path transform="translate(1e3 625)" d="m0 0h13l-4 2 2 11 1 6-1 1h-10l-2-3v-7z" fill="#D0CFCE"/>
<path transform="translate(1313,581)" d="m0 0 4 2 1 3v9l28 2 9 2-3 1-28-2-5-1h-19l3-2h3l2-10z" fill="#D0D0CE"/>
<path transform="translate(818,120)" d="m0 0h10l3 3 1 4-5 7-9 2-1-4h-2v-10z" fill="#F3F3F2"/>
<path transform="translate(867,955)" d="m0 0h9l3 3 1 2-1 9-10 2-2-4-3-1 1-9z" fill="#F4F4F3"/>
<path transform="translate(866,990)" d="m0 0h12l2 2v9l-3 2h-10l-4-5 1-7z" fill="#F2F2F1"/>
<path transform="translate(1349,387)" d="m0 0 1 2 5-2h7l-3 2 1 10 1 5-3 2h-8l-3-5 1-6 1-5z" fill="#F1F2F1"/>
<path transform="translate(1356,484)" d="m0 0 20 1v1l-7 1-2 4v-3h-4l-4 20-1 11-2-4-1-6v-10l1-13h-10v-1z" fill="#D8DDDD"/>
<path transform="translate(316,581)" d="m0 0 5 1 2 2v11l17 2 5 1v1h-8l-16-3h-7l-2 2-4 1h-7v-1l10-2 3-13z" fill="#CFCDCB"/>
<path transform="translate(816,156)" d="m0 0h13l3 7-2 4-3 1h-9l-4-4v-6z" fill="#F3F3F2"/>
<path transform="translate(415,129)" d="m0 0h12l1 1v22l-3 2h-3l-2 2 1-24-6-2z" fill="#DCE1E2"/>
<path transform="translate(1309,478)" d="m0 0h11l4 2 2 7-1 1h-13l-6-3-3-4v-2z" fill="#FBFBFA"/>
<path transform="translate(317,462)" d="m0 0 5 1 2 2v12l19 1 3 2-22-1-2-2v-6l-7 3-1 5-4 1h-12v-1l11-2 2-1 3-12z" fill="#CFCECC"/>
<path transform="translate(1131,338)" d="m0 0h6l4 3-1 36h-1l-1-22-3-3v-2l-5-1-2-9z" fill="#F3F3F1"/>
<path transform="translate(431,231)" d="m0 0h2v2l-4 1-1 22 1 21-2 3-2-4-1-19v-23l-6 1 1-3z" fill="#DBE1E2"/>
<path transform="translate(419,472)" d="m0 0 6 1 3 4v19l1 26-4-1-1-26-2-20-4-2z" fill="#DBE1E2"/>
<path transform="translate(570,713)" d="m0 0h2l1 10 1 32-1 6 4-1 1 3h-9z" fill="#FEFEFD"/>
<path transform="translate(618,955)" d="m0 0h13v1l-22 2 2 3-1 3-1 21h-1l-1-15v28l-1 2h-2v-24l-1-8-1-3 2-5 4-4z" fill="#D7DBDB"/>
<path transform="translate(223,462)" d="m0 0h19l2 3-1 5-1-3-24 1-11 2-2 1 2-4 8-3z" fill="#D1D1D0"/>
<path transform="translate(1316,457)" d="m0 0 9 1 3 5-1 4-3 3h-6l-6-5-1-6z" fill="#FAFAF9"/>
<path transform="translate(777,338)" d="m0 0 2 1 1 9-7 1-2 4-4 9h-4l-2 9-1 19h-1v-20l5-14 7-12 4-4h2z" fill="#D7DADA"/>
<path transform="translate(224,581)" d="m0 0h16l4 3 1 6h-22v-1h19v-2l-24-1-11 3 2-3z" fill="#D1D0CF"/>
<path transform="translate(63,488)" d="m0 0h21l4 3-3 5h-16l-5-3-2-4z" fill="#F7F7F6"/>
<path transform="translate(318,817)" d="m0 0h12l3 3-1 4-7 10-3-1-1-5-4-7z" fill="#F4F4F3"/>
<path transform="translate(1660,342)" d="m0 0 4 1 3 7-1 8h-2v-2l-3 2h-12l3-2h2l2-10z" fill="#D2D1D0"/>
<path transform="translate(866,491)" d="m0 0h7v3l4 2v13l-2 2-5-2-2 1-1-14z" fill="#FBFBFA"/>
<path transform="translate(76,106)" d="m0 0 3 2 1 7-3 1v11l2 19 1 3v13l-2-1-2-17-2-23-1-7-3-1 3-6z" fill="#DBE1E2"/>
<path transform="translate(1651,366)" d="m0 0h16l-1 7h-1v-5l-3 2-3 10h-2l-2 15h-1l-1-9v-17l-5-1z" fill="#DADFE0"/>
<path transform="translate(1612,338)" d="m0 0h8l5 5v5l-3 2h-7l-6-5-1-4z" fill="#F2F2F1"/>
<path transform="translate(720,934)" d="m0 0 8 1 3 2v6l-2 2-9 1-5-4-1-5z" fill="#F7F7F5"/>
<path transform="translate(1263,577)" d="m0 0h11l4 4v5l-3 2h-7l-5-3-2-2 1-5z" fill="#FAFAF9"/>
<path transform="translate(1262,596)" d="m0 0 9 1 3 3-2 5-9 2-4-2-5-5v-3z" fill="#FAFAF9"/>
<path transform="translate(422,99)" d="m0 0h6l4 2v7l-2 2-9 1-5-6 1-4z" fill="#F6F6F5"/>
<path transform="translate(1259,595)" d="m0 0 15 1 2 2 1 4v18l-1 14 13 2v1h-10l-15-3 1-2h2l1-3 7 1-1-15-2-5 4-1-2-9-3-2-9-1h-6z" fill="#CFCDCB"/>
<path transform="translate(1436,477)" d="m0 0h6v5l-1-4-6 2-2 7-4 4-6 15-5 10-3 10-2-2v-6l-5 1v-3l2 1 1-7 4 2 4-4 5-11 4-9 5-9z" fill="#D3D4D3"/>
<path transform="translate(901,511)" d="m0 0h1l1 10 14 2 18 1v1l-27 1 1 8-3-1-7 2v-8z" fill="#D0CFCE"/>
<path transform="translate(1062,461)" d="m0 0 14 1 9 3 2 3-7-2v2l2 1-8-1-4-1h-15l-4-1 2-4z" fill="#CFCDCB"/>
<path transform="translate(1163,458)" d="m0 0h11l5 3v5l-5 2h-7l-5-4-1-5z" fill="#F4F4F3"/>
<path transform="translate(868,458)" d="m0 0h7l6 2v5l-5 3-9-1-5-5v-2z" fill="#EDEDEC"/>
<path transform="translate(1466,338)" d="m0 0 9 2 2 2-1 5-6 3-5-1-5-6v-3z" fill="#F1F1F0"/>
<path transform="translate(313,697)" d="m0 0 9 1 2 1 1 6-2 4-1 8h-1v-5h-2l-2-6-11-5v-2z" fill="#F8F8F7"/>
<path transform="translate(664,582)" d="m0 0h6l2 2 1 5-2 5-4 1-6 2 1 4h-7l1-2h2l-1-3 6-1-1-4v-7z" fill="#D6D8D7"/>
<path transform="translate(1118,577)" d="m0 0 10 2 2 4-3 4-8 1-5-3-1-1v-5z" fill="#EEEEED"/>
<path transform="translate(423,590)" d="m0 0 5 1-1 9v20l2 18 1 6-1 1h-9v-1l6-1-2-1v-50z" fill="#D9DEDF"/>
<path transform="translate(1613,373)" d="m0 0 8 3v3h2l1 7-1 6-8-2z" fill="#FDFDFC"/>
<path transform="translate(1313,476)" d="m0 0 11 1 2 3 1 5-1 18h-1l-2-9-2-2-5-1v13h-1l-2-14-3-3h15l-2-7-3-1h-15l2-2z" fill="#D1D1CF"/>
<path transform="translate(555,458)" d="m0 0 6 1 2 1 1 3v12l-1 12h-1v-26h-2l-1 2h-3v22l-1 29h-1l-1-17v-33z" fill="#D3D3D2"/>
<path transform="translate(987,905)" d="m0 0h6v14l-1 24h-1l-2-24-2-7-5-3-6-2v-1z" fill="#FDFDFC"/>
<path transform="translate(208,823)" d="m0 0h1l1 6v34l2-4 2 4v6h-5l-1 10h-1v-36z" fill="#D0CFCD"/>
<path transform="translate(516,102)" d="m0 0 4 1 2 2v14h-2l-1-6-2 5h-5l-2 1 3-14z" fill="#D0CECD"/>
<path transform="translate(472,352)" d="m0 0h6v48l-3-3v-41z" fill="#DBE1E2"/>
<path transform="translate(210,820)" d="m0 0h35l3 9-1 2-7-1v-1h6l-3-3-13-3h-21z" fill="#D0CECC"/>
<path transform="translate(808,581)" d="m0 0 5 1 2 3v50h-1l-1-6v-34l-3 1-1-1v-8l2-5z" fill="#CFCECC"/>
<path transform="translate(952,461)" d="m0 0 3 1 1 8 3 4v3h-2l-3-5v21l-1 29h-1v-42l-2-16h2z" fill="#D1D1CF"/>
<path transform="translate(946 1e3)" d="m0 0h1l4 16 2 2 18 3v1h-26z" fill="#FEFEFD"/>
<path transform="translate(663,603)" d="m0 0 1 2-1 7h2v18l-3 1v6l-2-4v-14l1-12h-5l4-2z" fill="#D8DCDC"/>
<path transform="translate(416,700)" d="m0 0 5 2 2 6 1 7h-2l-1-6-3 3-1 3-3-1-3 3v-7l2-7z" fill="#DADEDE"/>
<path transform="translate(1316,492)" d="m0 0 4 1 4 5v10l-1 1h-6l-1-2-1-14z" fill="#FEFEFD"/>
<path transform="translate(69,461)" d="m0 0 13 1 8 4 4 5v12l-2 3v-13l-3-3-6-4h-11l-6 1-3-5z" fill="#D1D1D0"/>
<path transform="translate(489,124)" d="m0 0h17l2 1v2l4 2h3 1v5l-2 3-1 22h-1l-1-7-1-22-4-3-16-1h-8v-1z" fill="#D2D2D1"/>
<path transform="translate(1159,476)" d="m0 0h15l3 3 1 3v10l-1 13h-1v-9l-3-1-2-3-6-1-1 2-2-5 7-1 7 3 1-7-5-2 3-1v-2l-16-1z" fill="#D1D0CE"/>
<path transform="translate(902,369)" d="m0 0 1 3-1 20-3 4-4-13v-11l4 3z" fill="#D2D2D0"/>
<path transform="translate(82,579)" d="m0 0 3 1 1 6v4h-2v2l-2 1h-7l-1-4 6-8z" fill="#D9DDDE"/>
<path transform="translate(661,155)" d="m0 0 4 3 15 2 17 1 2 1-1 4-15 2h-22l-2-2h22l12-1 3-2h-12l-18-2-5-4z" fill="#D1D1D0"/>
<path transform="translate(1068,596)" d="m0 0h15l7 2-3 2-2 1h-8l-1-1h-18l-4 3 2-5 2-1z" fill="#D6D8D7"/>
<path transform="translate(379,395)" d="m0 0h1l1 7 7 1-1-4 3-3 4-1 1 3v7l-2 2h-8l-6-4z" fill="#DCDFDF"/>
<path transform="translate(367,825)" d="m0 0h2l4 5v4l16 1 7 2v1l-11 1-18-4 1-2-2-1z" fill="#D3D5D4"/>
<path transform="translate(946,906)" d="m0 0 11 1-7 7-2 11-1 15h-1l-1-33z" fill="#FEFEFD"/>
<path transform="translate(429,234)" d="m0 0h1v52l-2-1-1-32 1-18z" fill="#CFCDCB"/>
<path transform="translate(563,223)" d="m0 0h1v29l-1 4 3 1 5 4v10l-2-2-1-7-1-1-3 5v13h-1l-1-14 1-1v-6l-1-1-1-30h2z" fill="#D2D2D0"/>
<path transform="translate(308,485)" d="m0 0h6l1 1h19v1l-11 1v16l-1 12h-1v-27h-6l-1 26h-1v-29h-5z" fill="#D2D2D1"/>
<path transform="translate(318,697)" d="m0 0 7 1 2 2v6l-2 5v16l-2 6h-1l-1-12-1-2v-7l2-3 2-6v-4l-6-1z" fill="#DAE0E0"/>
<path transform="translate(295,599)" d="m0 0h5l2 2h5l6 3 3 2-1 6v28h-1l-2-29-1-5-4-2-10-1-4-1-1-2z" fill="#D2D3D2"/>
<path transform="translate(937,600)" d="m0 0 5 1v5 3 33l-1 2-2-1 1-9v-23l-5-1-1 2 2-10z" fill="#DADEDF"/>
<path transform="translate(205,137)" d="m0 0h2l1 10v9l-4 1-2-1-1 7h-1v-19h1l1 5h1z" fill="#D8DDDD"/>
<path transform="translate(1207,339)" d="m0 0 3 1 1 6-2 9-5 1-1-8 1-5-1-3z" fill="#DDDEDE"/>
<path transform="translate(662,130)" d="m0 0h1l1 8 1 1h15l-3 3-8 3-1 1 11 1v1l-16 1-1-7z" fill="#D1D1D0"/>
<path transform="translate(1e3 634)" d="m0 0 9 6-1 5h-10l-1-1v-7z" fill="#F5F5F4"/>
<path transform="translate(1463,372)" d="m0 0h5v6l-1 5 4-3 2-4 1 2v12l-3-1-2-4-2-1 1 3-3 1v-10h-2z" fill="#FEFEFD"/>
<path transform="translate(653,956)" d="m0 0h8l1 5-3 3-7-1-7-4v-2z" fill="#F5F5F4"/>
<path transform="translate(418,118)" d="m0 0 13 2v39l3 1-5-1 1-38h-14l-8 3v2l2 2-4-1-1-5 5-2z" fill="#D1D1D0"/>
<path transform="translate(79,940)" d="m0 0h14l7 2 1 2-9-1-18 1-10 3-6 5 2-4 4-4z" fill="#D4D4D3"/>
<path transform="translate(1053,514)" d="m0 0 9 4 1 5h-12l-3-4 1-3z" fill="#F2F2F2"/>
<path transform="translate(88,621)" d="m0 0 3 1 2 4h3l5 3 2 2-4 1-5 6-2 3v-13l-4-1z" fill="#DADAD8"/>
<path transform="translate(392,359)" d="m0 0h3l1 3v16h-1v-7l-4-2 1-3h-2v8l-2 6h-1l1-11 1-8z" fill="#D8DCDD"/>
<path transform="translate(1555,358)" d="m0 0h22l10 2-1 2-7 1-7-1-4-1-14-1z" fill="#CFCECC"/>
<path transform="translate(334,220)" d="m0 0h9l1 1v7l-3 2h-5l-1-6h-2z" fill="#F3F3F2"/>
<path transform="translate(66,702)" d="m0 0h16l2 1-1 4h10v5h-8v-1h7v-3h-11l-13-2z" fill="#D9DFDF"/>
<path transform="translate(1276,375)" d="m0 0h1l-1 8-5 11-3 5-4 1v8h-1l-1-9-3-4 5 2v-7l3 3 5-7z" fill="#D1D1D0"/>
<path transform="translate(1384,596)" d="m0 0 6 1-3 2-3 12-2 1-2-3-3 2 2-9z" fill="#D8DCDC"/>
<path transform="translate(1464,378)" d="m0 0h1l1 13h5l3 2v3l7 1 5 1v1h-13l-7-2-2-2z" fill="#D1D0CF"/>
<path transform="translate(1107,478)" d="m0 0h31l3 2-1 2-5-1-5 1-4-1h-19l-3 2 2-4z" fill="#D6D8D8"/>
<path transform="translate(1356,484)" d="m0 0 4 1 2 2-3 7-1 4-1 17h-1l-1-6v-10l1-13h-10v-1z" fill="#CFCDCB"/>
<path transform="translate(238,344)" d="m0 0 10 6 1 3h-9l-16-2v-1l11-1z" fill="#E1E3E3"/>
<path transform="translate(256,340)" d="m0 0h8l2 2v16l-3-3-3-9-2-1v-3l-3 1z" fill="#E4E5E5"/>
<path transform="translate(1381,626)" d="m0 0 1 3-10 24-6 8-6 3h-5l4-2 5-2 3-6 4-5z" fill="#D3D4D3"/>
<path transform="translate(1211,597)" d="m0 0h26l3 2-1 2-16-1h-16l-3 2 2-4z" fill="#D4D5D4"/>
<path transform="translate(76,585)" d="m0 0v3l-1 4h9l1 2-2 1-2 8h-1l1-9h-2l-1 2-6 1-5 3-5 5 2-5 11-14z" fill="#D4D6D6"/>
<path transform="translate(758,960)" d="m0 0h2l1 5h3l-3 3-1 3-1 15h-1l-1-11v-5l-4 2 1-6z" fill="#D7DADA"/>
<path transform="translate(122,630)" d="m0 0h7l5 3 1 10-2-4-3-2-5-1-4-1-2 1 2-5z" fill="#DADEDE"/>
<path transform="translate(1053,604)" d="m0 0h1l1 16 3 1v6l-3 2-1 12v2l5 1-4 1-3-3z" fill="#D7DADA"/>
<path transform="translate(612,341)" d="m0 0 2 4v32l5-2-1 3 1 1v7h-1v-6h-2v4l-2 1-1 8h-1v-9l3-1v-3h-2l-1-2z" fill="#D0CFCD"/>
<path transform="translate(1722,380)" d="m0 0 1 3-9 18-2 5h-1l-2-7-3-3 1-2 3 3v-11l2 4 2 5z" fill="#D1D1D0"/>
<path transform="translate(415,725)" d="m0 0 2 1-1 24h-1l-1 8h-1v-31z" fill="#DADFE0"/>
<path transform="translate(664,462)" d="m0 0 6 1 2 4-1 9h-1l-2-7-2 3-2-1-2 2v-8z" fill="#D6D7D6"/>
<path transform="translate(1349,387)" d="m0 0 1 2 5-2h7l-3 2v10l-4-2-1-2h-5z" fill="#D0CFCE"/>
<path transform="translate(1299,605)" d="m0 0h8l6 1-4 7-1 8v14l-2-4v-24l-7-1z" fill="#CFCDCB"/>
<path transform="translate(365,381)" d="m0 0 2 4 3 7-2 2-11-1-2 4 1-5 1-2 5-2z" fill="#D7DBDB"/>
<path transform="translate(421,974)" d="m0 0h9v1l-13 2-4 3-3 1 1 9-2-2-1-4-5 2 2-4 4-7h7z" fill="#D2D2D0"/>
<path transform="translate(916,477)" d="m0 0h16v1l-20 2-4 1-2 5h-2l-2 22h-1v-16l3-10 5-4z" fill="#D1D1CF"/>
<path transform="translate(542,366)" d="m0 0h1l1 8v19h-1l-1-17-3 2h-6l2-2v-7l6 2z" fill="#D4D6D5"/>
<path transform="translate(459,719)" d="m0 0 2 1-2 8-5 6-2 16h-1v-16l3-8z" fill="#D4D6D5"/>
<path transform="translate(1174,498)" d="m0 0h2v9l-1 2h-8v-9l1 3 4-1z" fill="#FEFEFD"/>
<path transform="translate(560,957)" d="m0 0 2 1-2 2 1 5-4 7h-3l-1-3-2 1 2-6z" fill="#DDE1E1"/>
<path transform="translate(942,486)" d="m0 0h1l1 16-4 2-4-2 3-9z" fill="#D3D4D3"/>
<path transform="translate(83,484)" d="m0 0 4 2h5v2l-2 1v3l2 1 2 6-6-3-3-1 2-4-5-2h-13l3-2h9z" fill="#D1D1D0"/>
<path transform="translate(225,342)" d="m0 0h12l1 2h-10l-16 5-5 5-2 4v6l1 4-3-3-1-6 5-9 6-4z" fill="#D2D3D2"/>
<path transform="translate(1419,508)" d="m0 0 1 3-4 10-1 5-2-2v-6l-5 1v-3l2 1 1-7 4 2z" fill="#D0D0CE"/>
<path transform="translate(1648,367)" d="m0 0h10l-1 9-1 2-1 17h-1l-1-9v-17l-5-1z" fill="#CFCDCB"/>
<path transform="translate(822,342)" d="m0 0 8 1v1l-5 1 3 1-1 2-17-1-7 7v-3l5-5 7-3z" fill="#D9DCDC"/>
<path transform="translate(76,235)" d="m0 0 1 3-2 2-1 37-4 1 2-2 1-37-14 1 2-2 13-2z" fill="#D1D2D2"/>
<path transform="translate(930,395)" d="m0 0 2 4-1 7h-21v-1h19l1-5-7 1-12-3v-1l19 1z" fill="#D1D0CF"/>
<path transform="translate(214,237)" d="m0 0 1 2-3 8h2v8l-4 1-2 7h-1l1-10 5-15z" fill="#D6D9D8"/>
<path transform="translate(367,848)" d="m0 0h1v10l-1 7-2 2-1 8h-1v-19l1-3 2-1z" fill="#DADFE0"/>
<path transform="translate(1051,464)" d="m0 0h28l3 2h-2v2l2 1-8-1-4-1h-15l-4-1z" fill="#D9DFE0"/>
<path transform="translate(682,389)" d="m0 0 2 1-2 9-1 1-15 1h-13l-1 2v-6l5 1h22l3-7z" fill="#D2D2D1"/>
<path transform="translate(991,1007)" d="m0 0 2 3v12l-1 1-9-1 4-4h2z" fill="#FEFEFD"/>
<path transform="translate(303,880)" d="m0 0 3 1 1 1h20l18 1v1h-54v-1h10v-2z" fill="#D1D1D0"/>
<path transform="translate(1307,605)" d="m0 0h9v2l-3 2-2 13-3 6h-1l1-15 4-6-5-1z" fill="#DBE1E2"/>
<path transform="translate(319,590)" d="m0 0h3v5l13 1 10 2v1h-8l-16-3h-8v-3l4-1z" fill="#D7DADA"/>
<path transform="translate(662,484)" d="m0 0 2 1-2 31h-1l-1-6v-22l-4-1z" fill="#CFCDCB"/>
<path transform="translate(1316,457)" d="m0 0 9 1 3 5-1 4-3 3h-6l4-3 3-2-1-3-5-2h-7l-1 3v-4z" fill="#D2D2D1"/>
<path transform="translate(1762,407)" d="m0 0 2 4-1 7-4 3h-2v-3l-4 1 6-7z" fill="#D8DCDC"/>
<path transform="translate(1376,611)" d="m0 0 1 3-8 19-5 13h-1l-1-11 3 1z" fill="#D2D3D2"/>
<path transform="translate(563,611)" d="m0 0 2 4h2l4-4 1 10-2 2-2 4v-4l-4 2 1-7-2-2z" fill="#D0D0CE"/>
<path transform="translate(1267,629)" d="m0 0 5 1 4-1v5l13 2v1h-10l-15-3 1-2h2z" fill="#D0CFCE"/>
<path transform="translate(878,487)" d="m0 0h1l-1 20h-1l-1-11-3-2v-3l-9-1 3-2h6l5 2z" fill="#D6D8D8"/>
<path transform="translate(779,338)" d="m0 0 7 1 1 3-6 8h-2v-7l-1-4z" fill="#F2F2F1"/>
<path transform="translate(409,955)" d="m0 0h24v1l-20 1-5 3 3 1h11l3 2h-16l-3-2 1-4z" fill="#D2D2D1"/>
<path transform="translate(1355,342)" d="m0 0h15l7 2v1l-14-1-5 3-4-1v-1h-3l-1 2v-3z" fill="#D1D1D0"/>
<path transform="translate(354,359)" d="m0 0h2l1 3v10l-4 11-2 12h-3l-1-2 8-22v-8z" fill="#D1D1CF"/>
<path transform="translate(67,711)" d="m0 0v3l1 8 3 3 16 3v1l-18-1-5-9v-5z" fill="#D2D3D2"/>
<path transform="translate(1126,617)" d="m0 0h1v16l-5 2-5-1v-13h1v8l5 1 3 2z" fill="#D0CFCD"/>
<path transform="translate(867,503)" d="m0 0h1l1 6 2-2 1 2h4l1 4-2 3-9-1 2-1-1-2z" fill="#D1D1D0"/>
<path transform="translate(210,710)" d="m0 0 3 1-1 18v25h-3l1-26 1-12 1-3-3-1z" fill="#D2D3D2"/>
<path transform="translate(1123,618)" d="m0 0h3v14l-4-2-3-2 1-2h2v-6z" fill="#FEFEFD"/>
<path transform="translate(1059,373)" d="m0 0 2 3v3h10l-4 2-2-1v2h2v2h-2v2h5v1h-9l-1-5z" fill="#D3D4D3"/>
<path transform="translate(260,958)" d="m0 0h1v7l6-1v7l-9-1-1 4v-5l2-6z" fill="#D6D9D9"/>
<path transform="translate(554,231)" d="m0 0h1l1 12-2 22 4 1-2 3-1 5h-1l-1-7v-13z" fill="#D1D1D0"/>
<path transform="translate(661,941)" d="m0 0h1l2 7v8l-2 1h-15l2-2 10-1z" fill="#D6DADA"/>
<path transform="translate(664,582)" d="m0 0h6l2 2 1 5-1 2-5 1-1-4 3-1v-3l-4 2-2 2v-5z" fill="#F0F0EF"/>
<path transform="translate(1263,577)" d="m0 0h11l4 4v5l-3 2h-7v-1l8-2-1-4-11-1h-2l-1 3 1-5z" fill="#D1D1D0"/>
<path transform="translate(416,700)" d="m0 0 5 2 2 6 1 7h-2l-2-8-4 2-1-5-2 1 2-4z" fill="#D0CFCD"/>
<path transform="translate(459,596)" d="m0 0h18v1l-16 2-4 3 9 2v1h-7l-5-3 3-5z" fill="#D1D1D0"/>
<path transform="translate(208,850)" d="m0 0h1l1 13 2-4 2 4v6h-6z" fill="#DCE2E3"/>
<path transform="translate(663,473)" d="m0 0h1v7l-1 1h-6l-1-1h-6-3l4-3 12-1z" fill="#D7D9D9"/>
<path transform="translate(316,464)" d="m0 0h3v4l3-1 1 3v7h-1v-6l-8 3v-7z" fill="#DEE4E5"/>
<path transform="translate(223,222)" d="m0 0 7 1 2 4-6-3v2l-6 1-1 7-4 3 2-6 3-7z" fill="#D2D3D2"/>
<path transform="translate(719,119)" d="m0 0 17 1v1l-19 1-10 2-2 1v-3l5-2z" fill="#D3D4D3"/>
<path transform="translate(243,618)" d="m0 0 3 1 4 9v2l6-1 1-3 5 1-4 2 1 2h-2l-2 2v-2l-7 2-1 3 1-7z" fill="#D0D0CE"/>
<path transform="translate(1126,597)" d="m0 0h1l1 7-2 13-1-2-4-1-2-5h7z" fill="#CFCECC"/>
<path transform="translate(952,461)" d="m0 0 3 1 1 8 3 4v3h-2l-4-5h-1v-5h-2v-3h2z" fill="#DCE1E2"/>
<path transform="translate(81,586)" d="m0 0 4 1-1 5-2 1h-7l-1-3z" fill="#FEFEFD"/>
<path transform="translate(1156,602)" d="m0 0 2 4-4 6-3 5h-1l1-9 3-5z" fill="#DBE1E2"/>
<path transform="translate(423,590)" d="m0 0 5 1-1 9v19l-2 1-1-28z" fill="#DBE1E2"/>
<path transform="translate(1140,341)" d="m0 0h1l-1 36h-1l-1-22-2-2v-3l3-3z" fill="#D3D3D2"/>
<path transform="translate(204,471)" d="m0 0 2 4 9-1-2 1v7l-2-3-8-1-1 3 1-7z" fill="#D0CFCD"/>
<path transform="translate(85,345)" d="m0 0 4 2 5 4 2 10-3 10-1-3v-16l-7-6z" fill="#D3D3D2"/>
<path transform="translate(207,113)" d="m0 0h1l-1 18-3-1v-14z" fill="#DBE1E2"/>
<path transform="translate(932,490)" d="m0 0h1v10l-14 4-1 2h-2l1-4 4-3h11z" fill="#D1D1CF"/>
<path transform="translate(205,266)" d="m0 0 1 4-3 12-2 3h6v1h-7l-1-4z" fill="#D2D3D2"/>
<path transform="translate(461,731)" d="m0 0 2 3v2h17v1l-11 2-7 1z" fill="#D2D2D1"/>
<path transform="translate(359,718)" d="m0 0 2 1 1 8-1 1h-6l-2 2 1-4z" fill="#D4D5D4"/>
<path transform="translate(265,642)" d="m0 0 27 2v1l-26 1-6-1v-1h5z" fill="#D4D5D4"/>
<path transform="translate(605,977)" d="m0 0h1l1 21-1 2h-2v-22z" fill="#DBE1E2"/>
<path transform="translate(313,966)" d="m0 0h1l1 7 1 1 14 1v1l-10 1-3 3h-3l-1-5z" fill="#D3D3D2"/>
<path transform="translate(122,868)" d="m0 0 7 1 3 3-1 2-9-1v-2l-2-1z" fill="#D9DCDC"/>
<path transform="translate(811,583)" d="m0 0 2 2 1 16h-1v-6l-3 1-1-1v-8z" fill="#DBE1E2"/>
<path transform="translate(1057,506)" d="m0 0h8l-4 2v10l-1-2-3-1-2-6z" fill="#D0CFCD"/>
<path transform="translate(330,823)" d="m0 0 2 1-7 10-3-1-1-6 5-2z" fill="#D0CECD"/>
<path transform="translate(805,463)" d="m0 0 3 1 2 24h-2l-2-16h-2v-5z" fill="#CFCDCB"/>
<path transform="translate(72,382)" d="m0 0h1l-1 7-3 3v2l4 1v1h-6l-3-4z" fill="#D2D3D2"/>
<path transform="translate(961,369)" d="m0 0 1 3v6l13 1v1h-11l-1 4-3-1-1-2 1-10z" fill="#D3D4D4"/>
<path transform="translate(79,222)" d="m0 0 4 1v3l-4 2-3 2-6-1 5-4z" fill="#D7D9D9"/>
<path transform="translate(703,724)" d="m0 0h1v17l5 1-3 3h-2l-1 4-1-5v-17z" fill="#D4D5D4"/>
<path transform="translate(1364,470)" d="m0 0 3 1 1 7h-11l3-1 2-5z" fill="#DBE1E2"/>
<path transform="translate(351,358)" d="m0 0 3 1-2 5h-2l-2 7-2 4-3-1 2-1 1-6 4-8z" fill="#D4D5D4"/>
<path transform="translate(515,129)" d="m0 0h1v5l-2 3-1 22h-1v-29z" fill="#D9DDDE"/>
<path transform="translate(116,952)" d="m0 0 1 3h21v1l-16 1-3 1-1 3-2 1z" fill="#D3D3D2"/>
<path transform="translate(1623,386)" d="m0 0h1v10l10 2v1l-10-1-4-1v-2h-2v-3l5 1z" fill="#D1D1D0"/>
<path transform="translate(1467,384)" d="m0 0 4 2 1 3 2 1-1 4-4-2-4-1v-3l2-2z" fill="#DBE1E2"/>
<path transform="translate(415,129)" d="m0 0h12l-1 3h-3l-1 17h-1v-17l-6-2z" fill="#CFCECC"/>
<path transform="translate(519,106)" d="m0 0h2l-1 7-2 4-3 1-3-1 2-4h2l2-6z" fill="#DBE1E2"/>
<path transform="translate(108,937)" d="m0 0 2 1-1 2 3 1v3h-4v2h2l-1 4-1-3-3-1 1-4z" fill="#D1D1D0"/>
<path transform="translate(712,723)" d="m0 0h1v11h2v2l3 1-1 6h-3l-2-1 1-5-1-1z" fill="#D1D0CE"/>
<path transform="translate(205,590)" d="m0 0h1v5l9-1-1 8-3-4-8-1z" fill="#D1D0CF"/>
<path transform="translate(553,578)" d="m0 0h9l2 1-1 2h-2l-1 6-2-4v-2l-5 2z" fill="#D3D5D4"/>
<path transform="translate(1159,476)" d="m0 0h15l3 3 1 3v10h-1v-9l-5-2 3-1v-2l-16-1z" fill="#D0CECD"/>
<path transform="translate(720,934)" d="m0 0 8 1 3 2v6h-1v-5l-5 1v-2h-7l-4 2 1-3z" fill="#D1D1D0"/>
<path transform="translate(374,875)" d="m0 0 21 1 1 2-5 1-16-2z" fill="#D3D4D3"/>
<path transform="translate(908,628)" d="m0 0 1 2-3 7-4 1-1 5-1-4 5-10z" fill="#D4D5D5"/>
<path transform="translate(270,363)" d="m0 0 11 1 3 4-1 3-4-4-13-1 1-2z" fill="#D1D1D0"/>
<path transform="translate(580,268)" d="m0 0 4 3 2 4 7 4 1 2h-5l-5-4-4-7z" fill="#D1D0CE"/>
<path transform="translate(458,259)" d="m0 0h18v1l-11 1-3 2 1 3-5-2-1-4z" fill="#D3D2D1"/>
<path transform="translate(800,461)" d="m0 0 5 1-2 7-3 4-1-11z" fill="#F4F3F2"/>
<path transform="translate(815,352)" d="m0 0 4 1-4 2-4 4h-2l-4 3 2-6z" fill="#D4D6D5"/>
<path transform="translate(458,239)" d="m0 0h22v1l-18 1-6 2v2l2 1h-3l-1-3z" fill="#D3D4D3"/>
<path transform="translate(1661,351)" d="m0 0h4l1 7h-2v-2l-3 1v-2l-5 1 1-4z" fill="#DDE1E2"/>
<path transform="translate(368,736)" d="m0 0h14v1l-15 2-1 4-3 1v-6h3z" fill="#D1D0CF"/>
<path transform="translate(411,717)" d="m0 0 1 4-5 1-8-2 1-2z" fill="#EBEEEE"/>
<path transform="translate(263,491)" d="m0 0 3 6 11 1v1l-7 1-2 2-4-1z" fill="#D3D4D3"/>
<path transform="translate(514,358)" d="m0 0h12v1l-15 2-6 2 1 2h-3l1-4 3-2z" fill="#D1D1CF"/>
<path transform="translate(1201,340)" d="m0 0 3 1 1 3-2 9-3-3z" fill="#FEFEFD"/>
<path transform="translate(901,525)" d="m0 0 5 1 1 6-5 2z" fill="#DBE1E2"/>
<path transform="translate(1045,377)" d="m0 0 2 4v3h2v-6h1l1 7-1 2h-2l-1 4-2-6-1-4z" fill="#D0CFCE"/>
<path transform="translate(484,151)" d="m0 0h1l1 5 6 1 2-3-1 9-1-4-11 1 2-2z" fill="#D2D3D2"/>
<path transform="translate(1274,624)" d="m0 0h1v6l-5 1-3-2v-2z" fill="#EDEFEF"/>
<path transform="translate(401,225)" d="m0 0 2 4 8 3v1h-9l-3-4v-3z" fill="#D8DCDC"/>
<path transform="translate(230,821)" d="m0 0h14v3h-10l-4-1z" fill="#DBE1E2"/>
<path transform="translate(1025,584)" d="m0 0h9l1 2-3 1 2 3-10-3z" fill="#D9DEDE"/>
<path transform="translate(662,465)" d="m0 0h6l1 2-2 5-3-1-2 2z" fill="#D4D6D5"/>
<path transform="translate(1284,359)" d="m0 0 4 1h-3v6l-3 3-3 1 3-9z" fill="#D8DBDA"/>
<path transform="translate(553,220)" d="m0 0h8l1 2-6 1-2 8h-1l-1-10z" fill="#D2D2D1"/>
<path transform="translate(459,719)" d="m0 0 2 1-2 8h-4l-2 2 1-4z" fill="#D0CFCD"/>
<path transform="translate(608,716)" d="m0 0h21v1l-18 1-7 3 2-4z" fill="#D1D1D0"/>
<path transform="translate(458,498)" d="m0 0h18v1l-14 1-1 3-4-2z" fill="#D6D6D5"/>
<path transform="translate(124,391)" d="m0 0h5l4 4 1 5-2-1-1-5h-2v2h-3v-3l-3-1z" fill="#D2D2D1"/>
<path transform="translate(1102,367)" d="m0 0 1 2-4 12-2 5-1-4 3-10z" fill="#D3D4D3"/>
<path transform="translate(317,358)" d="m0 0h6v1l-9 3-8 8v-3l5-6z" fill="#DEDEDD"/>
<path transform="translate(240,346)" d="m0 0 8 4 1 3h-9l-6-1v-1h7l5 1v-2l-6-1z" fill="#CFCECC"/>
<path transform="translate(238,823)" d="m0 0h8l2 7-3 1-5-1v-1h6l-3-3-5-2z" fill="#D2D3D2"/>
<path transform="translate(1259,595)" d="m0 0 15 1 2 2-1 3-4-3-9-1h-6z" fill="#D1D0CF"/>
<path transform="translate(313,474)" d="m0 0h1v5l-4 1h-12v-1l11-2z" fill="#D2D3D2"/>
<path transform="translate(1163,458)" d="m0 0h11l4 2-3 2-5-2h-8l-1 2v-3z" fill="#D2D2D1"/>
<path transform="translate(616,377)" d="m0 0 3 2v7h-1v-6h-2v4l-2 1-1 8h-1v-9l3-1v-3l-2-1z" fill="#D2D2D0"/>
<path transform="translate(1203,348)" d="m0 0 2 2 4-2v7l-5 1z" fill="#DEE2E3"/>
<path transform="translate(440,230)" d="m0 0 5 1v4h-5v-2h-5l-1-2z" fill="#DCDFE0"/>
<path transform="translate(422,99)" d="m0 0h6l4 2v7h-1v-6h-14l2-2z" fill="#D3D4D3"/>
<path transform="translate(270,846)" d="m0 0 5 3v2h2l-1 11h-1l-1-6h-1l-2-7z" fill="#D1D0CF"/>
<path transform="translate(1e3 630)" d="m0 0h3l3 8-4-2h-3l-1-3z" fill="#DBE1E2"/>
<path transform="translate(458,477)" d="m0 0h20v1l-16 1-7 3 2-4z" fill="#D0CFCD"/>
<path transform="translate(69,463)" d="m0 0h9l5 1v1l-17 2-1-3 4 1z" fill="#DAE0E1"/>
<path transform="translate(1463,372)" d="m0 0h5v6l-3 2v-2h-2z" fill="#F9F9F8"/>
<path transform="translate(1504,364)" d="m0 0 2 2-6 11h-1l1-8z" fill="#D9DFDF"/>
<path transform="translate(393,358)" d="m0 0 5 1 2 1v5l-4 1-1-7z" fill="#D2D2D1"/>
<path transform="translate(605,338)" d="m0 0 7 2-3 2-5-1-1 7h-1v-7z" fill="#D2D3D2"/>
<path transform="translate(89,110)" d="m0 0h7l-3 5-5-1z" fill="#E3E6E6"/>
<path transform="translate(323,719)" d="m0 0 2 4-1 9-2 1-1-13z" fill="#E7EBEB"/>
<path transform="translate(663,592)" d="m0 0 1 4-3 1 1 4h-7l1-2h2l-1-3 6-1z" fill="#DBDEDE"/>
<path transform="translate(867,488)" d="m0 0h6l4 4-4 1v-2l-9-1z" fill="#D1D0CE"/>
<path transform="translate(1568,360)" d="m0 0h14l1 2-4 1-7-1z" fill="#DBE1E2"/>
<path transform="translate(225,342)" d="m0 0h12l1 2h-10l-10 2 1-2z" fill="#D1D1CF"/>
<path transform="translate(367,825)" d="m0 0h2l2 3v5l-5-1z" fill="#E8ECEC"/>
<path transform="translate(122,630)" d="m0 0h7l4 2-8 2-4-1z" fill="#CFCDCB"/>
<path transform="translate(295,480)" d="m0 0 3 1 10 3-3 1-8-1h-3l-2-3z" fill="#CBCBCA"/>
<path transform="translate(835,475)" d="m0 0h1v16l-1-2h-9v-1l7-1 1-2z" fill="#D1D0CE"/>
<path transform="translate(229,704)" d="m0 0 9 1-4 2-1 1-9-1v-1l5-1z" fill="#DAE0E1"/>
<path transform="translate(706,697)" d="m0 0 5 1-2 1 1 6-5-5-3 3 1-5z" fill="#D2D3D2"/>
<path transform="translate(1316,491)" d="m0 0h5l4 5v9h-1l-1-7-4-5z" fill="#DBE1E2"/>
<path transform="translate(662,484)" d="m0 0 2 1-1 12h-1l-2-9-4-1z" fill="#D4D6D5"/>
<path transform="translate(1349,387)" d="m0 0 1 2h3l3 5-1 3-1-2h-5z" fill="#D5D8D8"/>
<path transform="translate(1064,380)" d="m0 0 1 2h2v2h-2v2h5v1h-9v-4h2z" fill="#D7DADA"/>
<path transform="translate(265,342)" d="m0 0h1v16l-3-3-1-7 2-1z" fill="#CFCECC"/>
<path transform="translate(464,129)" d="m0 0 2 1-1 2 2 1 1 3 2 2-4-1-2-2-4-2z" fill="#D3D4D4"/>
<path transform="translate(660,951)" d="m0 0 3 4-1 2h-15l2-2 10-1z" fill="#D0CFCE"/>
<path transform="translate(1362,635)" d="m0 0 3 1 2-1-1 5-2 6h-1z" fill="#CFCDCB"/>
<path transform="translate(663,603)" d="m0 0 1 2-1 3-1 11h-1v-12h-5l4-2z" fill="#D1D0CF"/>
<path transform="translate(1009,592)" d="m0 0h2l-2 18h-1l-1-16z" fill="#D1D0CF"/>
<path transform="translate(210,734)" d="m0 0h1l1 20h-3z" fill="#CFCDCB"/>
<path transform="translate(203,702)" d="m0 0 3 1v3h4v2l-7 1z" fill="#FEFEFD"/>
<path transform="translate(458,617)" d="m0 0 3 2 1-1h5l-4 2v3l-2 1-4-4z" fill="#D9D9D8"/>
<path transform="translate(88,491)" d="m0 0 4 2 2 6-6-3-3-1z" fill="#D0D0CE"/>
<path transform="translate(1615,390)" d="m0 0 8 2-3 1-2-1v3l2 1h-5l-2-1v-2h3z" fill="#DAE0E1"/>
<path transform="translate(1204,341)" d="m0 0 3 1v8l-3 1z" fill="#D1D0CF"/>
</svg>
