<?xml version='1.0' encoding='utf-8'?>
<!DOCTYPE svg PUBLIC '-//W3C//DTD SVG 1.1//EN' 'http://www.w3.org/Graphics/SVG/1.1/DTD/svg11.dtd'>
<!-- Uploaded to: SVG Repo, www.svgrepo.com, Generator: SVG Repo Mixer Tools -->
<svg fill="#000000" height="800px" width="800px" version="1.1" xmlns="http://www.w3.org/2000/svg" viewBox="0 0 512 512" xmlns:xlink="http://www.w3.org/1999/xlink" enable-background="new 0 0 512 512">
  <g>
    <g>
      <path d="m116,363.3c25.4,0 49.9,8.5 69.9,24 14.4-12.1 31.5-20.3 49.7-24.1v-130.3l-183.6,65.9 26.4,70.8c10.3-3.5 35.8-6.3 37.6-6.3z"/>
      <path d="m337.9,31.4c0-11.3-9.1-20.4-20.4-20.4h-122.9c-11.3,0-20.4,9.1-20.4,20.4v61h163.7v-61z"/>
      <path d="m261.1,185.3l122,43.3v-46c0-27-28.9-48.9-64.3-48.9h-125.6c-35.5,0-64.3,21.9-64.3,48.9v45.3l118.4-42.5c4.5-1.7 9.3-1.7 13.8-0.1z"/>
      <path d="m276.4,362c18.8,2.8 36.7,10.3 51.9,21.8 19.5-14.4 43.2-22.2 67.5-22.2 1.9,0 27.9,2.9 38.2,6.6l25.8-69.1-183.5-65.1v128z"/>
      <path d="m493.6,461.6l-46.3-37.8c-12.8-12.6-29.6-20.1-47.6-21-18.4-0.9-36.3,5-50.5,16.8-11.9,10-30.2,9.7-42.5-0.6-28.6-24-70.7-22.8-97.8,2.8-12.5,11.8-31.7,12.1-44.6,0.8-14.3-12.6-32.7-19.1-51.7-18.1-18.6,0.9-36,8.7-48.9,22.1l-45.5,38.8c-8.5,7.2-9.6,20.1-2.2,28.5 11,12.6 25,5.6 28.5,2.2 0,0 47.4-40.5 47.9-41 12.1-12.9 32-13.9 45.3-2.2 13.8,12.1 31.5,18.7 49.8,18.3 18.4-0.3 35.8-7.4 49.2-20 12.3-11.6 31.2-12.1 44.1-1.3 13.1,11 29.7,17.2 46.9,17.4 17.4,0.2 34.3-5.7 47.4-16.7 13-10.8 32.4-9.8 44.2,2.3 0.5,0.5 48.8,40 48.8,40 8.6,7 21.4,5.8 28.4-2.9 7-8.7 5.7-21.4-2.9-28.4z"/>
    </g>
  </g>
</svg>